<?xml version="1.0" encoding="UTF-8"?>
<svg xmlns="http://www.w3.org/2000/svg" xmlns:xlink="http://www.w3.org/1999/xlink" width="43px" height="32px" viewBox="0 0 42 32" version="1.1">
<defs>
<clipPath id="clip1">
  <path d="M 1.261719 4.894531 L 40.738281 4.894531 L 40.738281 26.878906 L 1.261719 26.878906 Z M 1.261719 4.894531 "/>
</clipPath>
<clipPath id="clip2">
  <path d="M 38.609375 4.894531 L 3.386719 4.894531 C 2.171875 4.894531 1.183594 5.898438 1.183594 7.132812 L 1.183594 24.863281 C 1.183594 26.101562 2.171875 27.105469 3.386719 27.105469 L 38.609375 27.105469 C 39.828125 27.105469 40.816406 26.101562 40.816406 24.863281 L 40.816406 7.132812 C 40.816406 5.898438 39.828125 4.894531 38.609375 4.894531 Z M 38.609375 4.894531 "/>
</clipPath>
<clipPath id="clip3">
  <path d="M 40.695312 23.203125 L 40.675781 23.367188 L 40.652344 23.523438 L 40.625 23.683594 L 40.589844 23.835938 L 40.546875 23.988281 L 40.503906 24.136719 L 40.453125 24.285156 L 40.394531 24.429688 L 40.328125 24.570312 L 40.261719 24.707031 L 40.1875 24.84375 L 40.109375 24.976562 L 40.03125 25.105469 L 39.941406 25.230469 L 39.847656 25.351562 L 39.753906 25.46875 L 39.652344 25.582031 L 39.546875 25.691406 L 39.4375 25.796875 L 39.324219 25.898438 L 39.207031 25.996094 L 39.089844 26.089844 L 38.964844 26.179688 L 38.835938 26.261719 L 38.707031 26.335938 L 38.574219 26.414062 L 38.4375 26.480469 L 38.15625 26.597656 L 38.007812 26.648438 L 37.859375 26.695312 L 37.710938 26.738281 L 37.40625 26.800781 L 37.25 26.820312 L 37.089844 26.835938 L 36.929688 26.847656 L 5.257812 26.847656 L 5.097656 26.84375 L 4.9375 26.832031 L 4.78125 26.816406 L 4.621094 26.792969 L 4.46875 26.761719 L 4.316406 26.726562 L 4.167969 26.6875 L 4.019531 26.640625 L 3.875 26.585938 L 3.734375 26.527344 L 3.59375 26.464844 L 3.457031 26.394531 L 3.328125 26.320312 L 3.195312 26.242188 L 3.070312 26.160156 L 2.945312 26.070312 L 2.828125 25.972656 L 2.710938 25.878906 L 2.597656 25.773438 L 2.492188 25.667969 L 2.386719 25.554688 L 2.289062 25.441406 L 2.195312 25.324219 L 2.101562 25.203125 L 2.015625 25.074219 L 1.933594 24.945312 L 1.859375 24.8125 L 1.785156 24.675781 L 1.71875 24.539062 L 1.601562 24.25 L 1.550781 24.101562 L 1.507812 23.953125 L 1.464844 23.800781 L 1.433594 23.644531 L 1.40625 23.488281 L 1.382812 23.332031 L 1.367188 23.167969 L 1.359375 23.007812 L 1.355469 22.839844 L 1.355469 -85.417969 L 1.359375 -85.578125 L 1.375 -85.742188 L 1.390625 -85.902344 L 1.414062 -86.058594 L 1.445312 -86.214844 L 1.480469 -86.367188 L 1.523438 -86.515625 L 1.570312 -86.664062 L 1.621094 -86.808594 L 1.679688 -86.953125 L 1.742188 -87.09375 L 1.8125 -87.226562 L 1.882812 -87.363281 L 1.960938 -87.496094 L 2.042969 -87.621094 L 2.128906 -87.742188 L 2.222656 -87.863281 L 2.316406 -87.980469 L 2.417969 -88.09375 L 2.632812 -88.308594 L 2.859375 -88.503906 L 2.976562 -88.59375 L 3.101562 -88.679688 L 3.226562 -88.761719 L 3.355469 -88.839844 L 3.488281 -88.914062 L 3.625 -88.980469 L 3.761719 -89.042969 L 3.90625 -89.097656 L 4.046875 -89.152344 L 4.34375 -89.238281 L 4.492188 -89.269531 L 4.644531 -89.300781 L 4.957031 -89.339844 L 5.117188 -89.347656 L 5.277344 -89.351562 L 36.769531 -89.351562 L 36.929688 -89.347656 L 37.089844 -89.339844 L 37.246094 -89.324219 L 37.402344 -89.304688 L 37.554688 -89.273438 L 37.707031 -89.238281 L 37.855469 -89.199219 L 38 -89.15625 L 38.148438 -89.105469 L 38.289062 -89.046875 L 38.429688 -88.984375 L 38.5625 -88.921875 L 38.695312 -88.847656 L 38.824219 -88.769531 L 38.953125 -88.6875 L 39.074219 -88.601562 L 39.195312 -88.507812 L 39.3125 -88.414062 L 39.425781 -88.3125 L 39.535156 -88.207031 L 39.640625 -88.097656 L 39.738281 -87.988281 L 39.835938 -87.871094 L 39.925781 -87.75 L 40.015625 -87.625 L 40.097656 -87.5 L 40.175781 -87.367188 L 40.25 -87.234375 L 40.316406 -87.097656 L 40.382812 -86.957031 L 40.492188 -86.667969 L 40.542969 -86.519531 L 40.582031 -86.367188 L 40.617188 -86.214844 L 40.648438 -86.058594 L 40.671875 -85.902344 L 40.691406 -85.742188 L 40.703125 -85.578125 L 40.707031 -85.417969 L 40.707031 22.878906 L 40.703125 23.042969 Z M 34.40625 -13.558594 L 34.402344 -13.632812 L 34.390625 -13.707031 L 34.363281 -13.84375 L 34.34375 -13.917969 L 34.320312 -13.984375 L 34.300781 -14.050781 L 34.246094 -14.175781 L 34.214844 -14.242188 L 34.179688 -14.304688 L 34.144531 -14.363281 L 34.109375 -14.417969 L 34.070312 -14.476562 L 34.027344 -14.535156 L 33.984375 -14.585938 L 33.890625 -14.6875 L 33.789062 -14.78125 L 33.738281 -14.824219 L 33.683594 -14.867188 L 33.625 -14.90625 L 33.570312 -14.945312 L 33.511719 -14.980469 L 33.449219 -15.011719 L 33.390625 -15.042969 L 33.328125 -15.070312 L 33.261719 -15.097656 L 33.195312 -15.121094 L 33.128906 -15.140625 L 33.058594 -15.160156 L 32.992188 -15.175781 L 32.851562 -15.199219 L 32.777344 -15.207031 L 32.707031 -15.207031 L 32.632812 -15.210938 L 9.355469 -15.210938 L 9.285156 -15.207031 L 9.210938 -15.207031 L 9.140625 -15.195312 L 9.070312 -15.1875 L 9 -15.175781 L 8.929688 -15.15625 L 8.863281 -15.140625 L 8.730469 -15.09375 L 8.667969 -15.066406 L 8.605469 -15.042969 L 8.542969 -15.011719 L 8.480469 -14.976562 L 8.421875 -14.941406 L 8.367188 -14.902344 L 8.308594 -14.863281 L 8.253906 -14.820312 L 8.203125 -14.777344 L 8.101562 -14.683594 L 8.058594 -14.632812 L 8.007812 -14.582031 L 7.96875 -14.527344 L 7.925781 -14.472656 L 7.886719 -14.414062 L 7.851562 -14.355469 L 7.8125 -14.296875 L 7.75 -14.171875 L 7.722656 -14.109375 L 7.699219 -14.042969 L 7.671875 -13.976562 L 7.652344 -13.910156 L 7.636719 -13.839844 L 7.617188 -13.769531 L 7.605469 -13.699219 L 7.589844 -13.554688 L 7.585938 -13.484375 L 7.582031 -13.40625 L 7.585938 -13.332031 L 7.589844 -13.261719 L 7.605469 -13.113281 L 7.617188 -13.042969 L 7.636719 -12.972656 L 7.652344 -12.902344 L 7.671875 -12.835938 L 7.699219 -12.769531 L 7.75 -12.640625 L 7.8125 -12.515625 L 7.851562 -12.457031 L 7.886719 -12.398438 L 7.925781 -12.339844 L 7.96875 -12.285156 L 8.007812 -12.234375 L 8.058594 -12.179688 L 8.101562 -12.128906 L 8.152344 -12.082031 L 8.203125 -12.039062 L 8.253906 -11.992188 L 8.308594 -11.949219 L 8.367188 -11.910156 L 8.421875 -11.871094 L 8.480469 -11.835938 L 8.542969 -11.804688 L 8.605469 -11.769531 L 8.667969 -11.746094 L 8.730469 -11.71875 L 8.863281 -11.671875 L 8.929688 -11.65625 L 9 -11.636719 L 9.070312 -11.625 L 9.140625 -11.617188 L 9.210938 -11.605469 L 9.285156 -11.605469 L 9.355469 -11.601562 L 26.355469 -11.601562 L 25.558594 -11.101562 L 24.78125 -10.609375 L 24.023438 -10.128906 L 23.28125 -9.664062 L 22.558594 -9.203125 L 21.851562 -8.757812 L 21.164062 -8.324219 L 20.496094 -7.902344 L 19.84375 -7.492188 L 19.207031 -7.089844 L 18.589844 -6.703125 L 17.992188 -6.324219 L 17.410156 -5.957031 L 16.851562 -5.601562 L 16.304688 -5.257812 L 15.777344 -4.925781 L 15.265625 -4.601562 L 14.304688 -3.996094 L 13.847656 -3.707031 L 13.410156 -3.429688 L 12.988281 -3.167969 L 12.585938 -2.914062 L 12.203125 -2.671875 L 11.835938 -2.4375 L 11.488281 -2.21875 L 11.160156 -2.011719 L 10.847656 -1.8125 L 10.550781 -1.628906 L 10.273438 -1.453125 L 10.015625 -1.289062 L 9.773438 -1.136719 L 9.550781 -0.996094 L 9.34375 -0.867188 L 9.15625 -0.75 L 8.988281 -0.640625 L 8.835938 -0.546875 L 8.703125 -0.460938 L 8.585938 -0.386719 L 8.488281 -0.324219 L 8.449219 -0.300781 L 8.410156 -0.273438 L 8.375 -0.246094 L 8.339844 -0.222656 L 8.304688 -0.191406 L 8.269531 -0.164062 L 8.238281 -0.132812 L 8.203125 -0.101562 L 8.140625 -0.0390625 L 8.027344 0.0976562 L 7.972656 0.171875 L 7.949219 0.210938 L 7.925781 0.246094 L 7.902344 0.285156 L 7.859375 0.363281 L 7.820312 0.441406 L 7.800781 0.484375 L 7.785156 0.523438 L 7.753906 0.609375 L 7.742188 0.652344 L 7.726562 0.695312 L 7.714844 0.738281 L 7.703125 0.785156 L 7.691406 0.828125 L 7.6875 0.871094 L 7.679688 0.917969 L 7.671875 0.960938 L 7.664062 1.007812 L 7.664062 1.050781 L 7.65625 1.097656 L 7.65625 1.191406 L 7.652344 1.203125 L 7.652344 1.214844 L 7.648438 1.230469 L 7.648438 1.28125 L 7.644531 1.292969 L 7.644531 1.367188 L 7.640625 1.382812 L 7.640625 1.507812 L 7.644531 1.519531 L 7.644531 1.59375 L 7.648438 1.609375 L 7.648438 1.65625 L 7.652344 1.671875 L 7.652344 1.683594 L 7.65625 1.695312 L 7.671875 1.753906 L 7.691406 1.8125 L 7.714844 1.871094 L 7.761719 1.980469 L 7.816406 2.089844 L 7.878906 2.191406 L 7.914062 2.242188 L 7.949219 2.285156 L 7.984375 2.335938 L 8.023438 2.378906 L 8.058594 2.421875 L 8.144531 2.507812 L 8.230469 2.585938 L 8.273438 2.621094 L 8.367188 2.691406 L 8.417969 2.722656 L 8.464844 2.75 L 8.515625 2.78125 L 8.570312 2.808594 L 8.621094 2.832031 L 8.671875 2.859375 L 8.730469 2.878906 L 8.894531 2.9375 L 9.070312 2.972656 L 9.1875 2.988281 L 9.246094 2.992188 L 9.308594 2.996094 L 9.367188 3 L 9.429688 2.996094 L 32.632812 2.996094 L 32.707031 2.992188 L 32.777344 2.992188 L 32.851562 2.980469 L 32.921875 2.972656 L 32.992188 2.960938 L 33.058594 2.941406 L 33.128906 2.925781 L 33.261719 2.878906 L 33.324219 2.851562 L 33.390625 2.828125 L 33.449219 2.796875 L 33.511719 2.761719 L 33.570312 2.726562 L 33.625 2.6875 L 33.683594 2.648438 L 33.734375 2.605469 L 33.789062 2.558594 L 33.839844 2.515625 L 33.890625 2.46875 L 33.9375 2.417969 L 33.980469 2.363281 L 34.027344 2.3125 L 34.066406 2.257812 L 34.109375 2.199219 L 34.179688 2.082031 L 34.242188 1.957031 L 34.269531 1.890625 L 34.296875 1.828125 L 34.320312 1.761719 L 34.339844 1.691406 L 34.355469 1.625 L 34.375 1.554688 L 34.386719 1.484375 L 34.394531 1.410156 L 34.40625 1.335938 L 34.40625 1.265625 L 34.410156 1.191406 L 34.40625 1.113281 L 34.40625 1.042969 L 34.394531 0.96875 L 34.386719 0.898438 L 34.375 0.828125 L 34.355469 0.757812 L 34.339844 0.6875 L 34.320312 0.621094 L 34.296875 0.554688 L 34.269531 0.488281 L 34.242188 0.425781 L 34.179688 0.300781 L 34.109375 0.183594 L 34.066406 0.125 L 34.027344 0.0703125 L 33.980469 0.015625 L 33.9375 -0.0351562 L 33.890625 -0.0859375 L 33.789062 -0.179688 L 33.734375 -0.222656 L 33.683594 -0.265625 L 33.625 -0.304688 L 33.570312 -0.34375 L 33.511719 -0.378906 L 33.449219 -0.414062 L 33.390625 -0.445312 L 33.324219 -0.46875 L 33.261719 -0.496094 L 33.195312 -0.523438 L 33.128906 -0.542969 L 33.058594 -0.5625 L 32.992188 -0.578125 L 32.921875 -0.589844 L 32.851562 -0.597656 L 32.777344 -0.609375 L 32.707031 -0.609375 L 32.632812 -0.613281 L 15.710938 -0.613281 L 16.503906 -1.113281 L 17.28125 -1.605469 L 18.039062 -2.082031 L 18.78125 -2.550781 L 19.507812 -3.003906 L 20.210938 -3.449219 L 20.898438 -3.882812 L 21.570312 -4.308594 L 22.222656 -4.714844 L 22.855469 -5.117188 L 23.472656 -5.507812 L 24.070312 -5.882812 L 24.652344 -6.25 L 25.214844 -6.605469 L 25.761719 -6.945312 L 26.285156 -7.28125 L 26.796875 -7.601562 L 27.285156 -7.910156 L 27.757812 -8.207031 L 28.214844 -8.496094 L 28.652344 -8.773438 L 29.074219 -9.035156 L 29.476562 -9.289062 L 29.859375 -9.53125 L 30.226562 -9.761719 L 30.574219 -9.980469 L 30.902344 -10.191406 L 31.214844 -10.386719 L 31.511719 -10.574219 L 31.789062 -10.746094 L 32.046875 -10.910156 L 32.289062 -11.0625 L 32.511719 -11.203125 L 32.71875 -11.332031 L 32.90625 -11.453125 L 33.074219 -11.558594 L 33.226562 -11.652344 L 33.359375 -11.738281 L 33.476562 -11.808594 L 33.574219 -11.871094 L 33.613281 -11.898438 L 33.648438 -11.925781 L 33.6875 -11.949219 L 33.722656 -11.980469 L 33.761719 -12.007812 L 33.796875 -12.039062 L 33.863281 -12.101562 L 33.957031 -12.195312 L 33.984375 -12.230469 L 34.015625 -12.265625 L 34.042969 -12.304688 L 34.097656 -12.375 L 34.121094 -12.414062 L 34.144531 -12.449219 L 34.167969 -12.492188 L 34.191406 -12.53125 L 34.210938 -12.570312 L 34.234375 -12.609375 L 34.253906 -12.652344 L 34.273438 -12.691406 L 34.289062 -12.738281 L 34.304688 -12.777344 L 34.320312 -12.820312 L 34.332031 -12.867188 L 34.355469 -12.953125 L 34.371094 -13 L 34.386719 -13.085938 L 34.402344 -13.179688 L 34.410156 -13.273438 L 34.410156 -13.316406 L 34.414062 -13.367188 L 34.414062 -13.414062 L 34.410156 -13.488281 Z M 34.410156 -63.960938 L 34.40625 -64.03125 L 34.371094 -64.242188 L 34.351562 -64.316406 L 34.332031 -64.386719 L 34.308594 -64.453125 L 34.277344 -64.546875 L 34.246094 -64.613281 L 34.21875 -64.679688 L 34.1875 -64.746094 L 34.152344 -64.808594 L 34.113281 -64.871094 L 34.074219 -64.929688 L 34.03125 -64.988281 L 33.945312 -65.097656 L 33.796875 -65.246094 L 33.742188 -65.289062 L 33.632812 -65.371094 L 33.578125 -65.410156 L 33.515625 -65.449219 L 33.398438 -65.511719 L 33.335938 -65.542969 L 33.273438 -65.570312 L 33.210938 -65.59375 L 33.078125 -65.632812 L 32.945312 -65.664062 L 32.878906 -65.675781 L 32.742188 -65.691406 L 32.535156 -65.691406 L 32.464844 -65.683594 L 32.394531 -65.679688 L 32.324219 -65.667969 L 32.253906 -65.652344 L 32.1875 -65.636719 L 32.117188 -65.617188 L 32.046875 -65.59375 L 31.980469 -65.570312 L 31.773438 -65.484375 L 31.511719 -65.371094 L 31.195312 -65.242188 L 30.828125 -65.085938 L 30.410156 -64.914062 L 29.945312 -64.71875 L 29.441406 -64.507812 L 28.894531 -64.277344 L 28.3125 -64.035156 L 27.699219 -63.78125 L 27.050781 -63.507812 L 26.378906 -63.226562 L 25.679688 -62.933594 L 24.960938 -62.636719 L 24.222656 -62.328125 L 23.46875 -62.011719 L 22.707031 -61.691406 L 21.152344 -61.042969 L 19.582031 -60.386719 L 18.027344 -59.738281 L 17.265625 -59.417969 L 16.511719 -59.101562 L 15.773438 -58.796875 L 15.054688 -58.496094 L 14.355469 -58.203125 L 13.683594 -57.921875 L 13.035156 -57.652344 L 12.421875 -57.394531 L 11.839844 -57.152344 L 11.292969 -56.921875 L 10.789062 -56.710938 L 10.324219 -56.519531 L 9.90625 -56.34375 L 9.539062 -56.1875 L 9.222656 -56.058594 L 8.960938 -55.945312 L 8.753906 -55.863281 L 8.703125 -55.839844 L 8.65625 -55.816406 L 8.605469 -55.792969 L 8.5625 -55.765625 L 8.515625 -55.742188 L 8.46875 -55.710938 L 8.425781 -55.683594 L 8.339844 -55.621094 L 8.257812 -55.550781 L 8.222656 -55.515625 L 8.183594 -55.480469 L 8.078125 -55.363281 L 8.046875 -55.320312 L 8.011719 -55.28125 L 7.980469 -55.238281 L 7.953125 -55.191406 L 7.921875 -55.148438 L 7.898438 -55.105469 L 7.871094 -55.058594 L 7.800781 -54.917969 L 7.785156 -54.867188 L 7.746094 -54.765625 L 7.730469 -54.714844 L 7.71875 -54.664062 L 7.703125 -54.613281 L 7.691406 -54.5625 L 7.679688 -54.507812 L 7.667969 -54.402344 L 7.664062 -54.347656 L 7.65625 -54.292969 L 7.65625 -54.128906 L 7.660156 -54.074219 L 7.664062 -54.023438 L 7.675781 -53.914062 L 7.683594 -53.863281 L 7.695312 -53.808594 L 7.71875 -53.707031 L 7.75 -53.605469 L 7.769531 -53.558594 L 7.808594 -53.460938 L 7.828125 -53.410156 L 7.851562 -53.367188 L 7.875 -53.320312 L 7.929688 -53.226562 L 7.957031 -53.183594 L 7.984375 -53.144531 L 8.015625 -53.097656 L 8.050781 -53.058594 L 8.082031 -53.019531 L 8.117188 -52.976562 L 8.152344 -52.941406 L 8.1875 -52.902344 L 8.265625 -52.832031 L 8.34375 -52.765625 L 8.472656 -52.671875 L 8.515625 -52.648438 L 8.609375 -52.59375 L 8.703125 -52.546875 L 8.753906 -52.527344 L 8.960938 -52.441406 L 9.222656 -52.332031 L 9.539062 -52.199219 L 9.90625 -52.050781 L 10.324219 -51.875 L 10.789062 -51.6875 L 11.292969 -51.476562 L 11.839844 -51.25 L 12.421875 -51.011719 L 13.035156 -50.757812 L 13.683594 -50.488281 L 14.355469 -50.207031 L 15.054688 -49.921875 L 15.773438 -49.625 L 16.511719 -49.316406 L 17.265625 -49.007812 L 18.027344 -48.691406 L 19.582031 -48.050781 L 21.152344 -47.402344 L 21.929688 -47.078125 L 22.707031 -46.757812 L 23.46875 -46.441406 L 24.222656 -46.132812 L 24.960938 -45.828125 L 25.679688 -45.53125 L 26.378906 -45.242188 L 27.050781 -44.960938 L 27.699219 -44.695312 L 28.3125 -44.441406 L 28.894531 -44.199219 L 29.441406 -43.976562 L 29.945312 -43.765625 L 30.410156 -43.574219 L 30.828125 -43.402344 L 31.195312 -43.25 L 31.511719 -43.117188 L 31.773438 -43.007812 L 31.980469 -42.925781 L 32.046875 -42.898438 L 32.113281 -42.875 L 32.253906 -42.835938 L 32.394531 -42.8125 L 32.460938 -42.804688 L 32.53125 -42.796875 L 32.601562 -42.792969 L 32.667969 -42.792969 L 32.808594 -42.800781 L 32.875 -42.8125 L 32.945312 -42.820312 L 33.011719 -42.832031 L 33.078125 -42.847656 L 33.140625 -42.867188 L 33.207031 -42.886719 L 33.269531 -42.914062 L 33.335938 -42.9375 L 33.394531 -42.964844 L 33.457031 -42.996094 L 33.515625 -43.027344 L 33.574219 -43.0625 L 33.632812 -43.101562 L 33.6875 -43.140625 L 33.796875 -43.226562 L 33.84375 -43.273438 L 33.894531 -43.320312 L 33.945312 -43.371094 L 33.992188 -43.425781 L 34.035156 -43.480469 L 34.078125 -43.539062 L 34.117188 -43.59375 L 34.15625 -43.65625 L 34.191406 -43.71875 L 34.222656 -43.78125 L 34.253906 -43.847656 L 34.285156 -43.917969 L 34.308594 -43.984375 L 34.328125 -44.054688 L 34.34375 -44.121094 L 34.363281 -44.191406 L 34.375 -44.261719 L 34.382812 -44.332031 L 34.390625 -44.398438 L 34.394531 -44.46875 L 34.394531 -44.605469 L 34.390625 -44.675781 L 34.386719 -44.742188 L 34.375 -44.808594 L 34.367188 -44.875 L 34.351562 -44.945312 L 34.335938 -45.007812 L 34.320312 -45.074219 L 34.296875 -45.136719 L 34.277344 -45.199219 L 34.25 -45.261719 L 34.191406 -45.382812 L 34.164062 -45.445312 L 34.125 -45.503906 L 34.054688 -45.613281 L 34.011719 -45.667969 L 33.96875 -45.71875 L 33.925781 -45.773438 L 33.878906 -45.820312 L 33.777344 -45.914062 L 33.675781 -46 L 33.5 -46.117188 L 33.375 -46.179688 L 33.308594 -46.210938 L 33.207031 -46.253906 L 33.078125 -46.308594 L 32.9375 -46.363281 L 32.773438 -46.433594 L 32.589844 -46.511719 L 32.390625 -46.59375 L 32.167969 -46.683594 L 31.925781 -46.785156 L 31.667969 -46.890625 L 31.390625 -47.007812 L 31.089844 -47.132812 L 30.773438 -47.261719 L 30.441406 -47.402344 L 30.085938 -47.550781 L 29.710938 -47.707031 L 29.316406 -47.867188 L 28.902344 -48.039062 L 28.472656 -48.21875 L 28.019531 -48.40625 L 27.550781 -48.601562 L 27.0625 -48.804688 L 26.550781 -49.019531 L 26.023438 -49.234375 L 25.476562 -49.464844 L 24.910156 -49.699219 L 24.328125 -49.941406 L 23.71875 -50.195312 L 23.097656 -50.453125 L 22.453125 -50.71875 L 21.792969 -50.996094 L 21.109375 -51.277344 L 20.410156 -51.570312 L 19.691406 -51.867188 L 18.949219 -52.175781 L 18.191406 -52.488281 L 17.414062 -52.8125 L 16.617188 -53.144531 L 15.804688 -53.480469 L 14.96875 -53.828125 L 14.113281 -54.183594 L 14.96875 -54.539062 L 15.804688 -54.886719 L 16.617188 -55.226562 L 17.414062 -55.558594 L 18.191406 -55.882812 L 18.949219 -56.199219 L 19.691406 -56.503906 L 20.410156 -56.804688 L 21.109375 -57.097656 L 21.792969 -57.382812 L 22.453125 -57.65625 L 23.097656 -57.925781 L 23.71875 -58.1875 L 24.328125 -58.4375 L 24.910156 -58.679688 L 25.476562 -58.917969 L 26.023438 -59.144531 L 26.550781 -59.363281 L 27.0625 -59.574219 L 27.550781 -59.777344 L 28.019531 -59.972656 L 28.472656 -60.164062 L 28.902344 -60.34375 L 29.316406 -60.515625 L 29.710938 -60.679688 L 30.085938 -60.832031 L 30.441406 -60.980469 L 30.773438 -61.121094 L 31.089844 -61.253906 L 31.390625 -61.378906 L 31.667969 -61.496094 L 31.925781 -61.601562 L 32.167969 -61.703125 L 32.390625 -61.796875 L 32.589844 -61.878906 L 32.773438 -61.953125 L 32.9375 -62.023438 L 33.078125 -62.082031 L 33.207031 -62.132812 L 33.308594 -62.175781 L 33.375 -62.207031 L 33.445312 -62.238281 L 33.503906 -62.273438 L 33.566406 -62.3125 L 33.625 -62.347656 L 33.683594 -62.386719 L 33.742188 -62.433594 L 33.792969 -62.476562 L 33.894531 -62.570312 L 33.945312 -62.621094 L 34.074219 -62.785156 L 34.113281 -62.839844 L 34.148438 -62.898438 L 34.183594 -62.960938 L 34.21875 -63.019531 L 34.273438 -63.144531 L 34.296875 -63.207031 L 34.320312 -63.273438 L 34.359375 -63.40625 L 34.386719 -63.542969 L 34.398438 -63.609375 L 34.40625 -63.679688 L 34.410156 -63.75 Z M 34.40625 -35.855469 L 34.40625 -35.929688 L 34.394531 -36 L 34.386719 -36.074219 L 34.375 -36.144531 L 34.355469 -36.214844 L 34.339844 -36.28125 L 34.320312 -36.347656 L 34.296875 -36.417969 L 34.269531 -36.484375 L 34.242188 -36.546875 L 34.179688 -36.671875 L 34.109375 -36.789062 L 34.066406 -36.847656 L 34.027344 -36.902344 L 33.980469 -36.953125 L 33.9375 -37.003906 L 33.890625 -37.058594 L 33.839844 -37.101562 L 33.789062 -37.152344 L 33.734375 -37.195312 L 33.683594 -37.234375 L 33.625 -37.277344 L 33.570312 -37.3125 L 33.511719 -37.347656 L 33.449219 -37.382812 L 33.390625 -37.414062 L 33.324219 -37.441406 L 33.261719 -37.46875 L 33.128906 -37.515625 L 33.058594 -37.53125 L 32.992188 -37.546875 L 32.851562 -37.570312 L 32.777344 -37.578125 L 32.707031 -37.582031 L 32.632812 -37.585938 L 9.429688 -37.585938 L 9.355469 -37.582031 L 9.285156 -37.578125 L 9.210938 -37.570312 L 9.070312 -37.546875 L 9.003906 -37.53125 L 8.933594 -37.515625 L 8.800781 -37.46875 L 8.671875 -37.414062 L 8.613281 -37.382812 L 8.550781 -37.347656 L 8.433594 -37.277344 L 8.324219 -37.195312 L 8.273438 -37.152344 L 8.222656 -37.101562 L 8.171875 -37.058594 L 8.125 -37.003906 L 8.039062 -36.902344 L 7.996094 -36.847656 L 7.917969 -36.730469 L 7.886719 -36.671875 L 7.851562 -36.609375 L 7.820312 -36.546875 L 7.792969 -36.484375 L 7.769531 -36.417969 L 7.746094 -36.347656 L 7.722656 -36.28125 L 7.707031 -36.214844 L 7.691406 -36.144531 L 7.679688 -36.074219 L 7.667969 -36 L 7.660156 -35.929688 L 7.65625 -35.855469 L 7.65625 -35.707031 L 7.660156 -35.632812 L 7.667969 -35.5625 L 7.679688 -35.488281 L 7.691406 -35.417969 L 7.722656 -35.277344 L 7.792969 -35.078125 L 7.820312 -35.011719 L 7.851562 -34.949219 L 7.917969 -34.828125 L 7.957031 -34.769531 L 7.996094 -34.714844 L 8.082031 -34.605469 L 8.125 -34.554688 L 8.171875 -34.503906 L 8.324219 -34.363281 L 8.433594 -34.28125 L 8.550781 -34.210938 L 8.613281 -34.175781 L 8.671875 -34.144531 L 8.800781 -34.089844 L 8.867188 -34.066406 L 8.933594 -34.046875 L 9.003906 -34.027344 L 9.070312 -34.011719 L 9.210938 -33.988281 L 9.285156 -33.980469 L 9.355469 -33.976562 L 19.257812 -33.976562 L 19.257812 -28.058594 L 19.261719 -27.742188 L 19.28125 -27.425781 L 19.3125 -27.117188 L 19.355469 -26.808594 L 19.410156 -26.503906 L 19.476562 -26.207031 L 19.554688 -25.910156 L 19.640625 -25.625 L 19.742188 -25.335938 L 19.851562 -25.058594 L 19.972656 -24.785156 L 20.101562 -24.515625 L 20.242188 -24.253906 L 20.390625 -24 L 20.550781 -23.75 L 20.71875 -23.507812 L 20.894531 -23.273438 L 21.078125 -23.046875 L 21.273438 -22.820312 L 21.476562 -22.609375 L 21.683594 -22.40625 L 21.902344 -22.207031 L 22.128906 -22.019531 L 22.359375 -21.839844 L 22.597656 -21.671875 L 22.839844 -21.507812 L 23.09375 -21.355469 L 23.351562 -21.210938 L 23.613281 -21.082031 L 23.882812 -20.957031 L 24.15625 -20.847656 L 24.4375 -20.746094 L 24.722656 -20.65625 L 25.011719 -20.578125 L 25.304688 -20.511719 L 25.605469 -20.453125 L 25.90625 -20.410156 L 26.210938 -20.378906 L 26.519531 -20.359375 L 26.832031 -20.351562 L 27.144531 -20.359375 L 27.453125 -20.378906 L 27.757812 -20.410156 L 28.0625 -20.453125 L 28.363281 -20.511719 L 28.652344 -20.578125 L 28.945312 -20.65625 L 29.226562 -20.746094 L 29.507812 -20.847656 L 29.78125 -20.957031 L 30.050781 -21.082031 L 30.316406 -21.210938 L 30.574219 -21.355469 L 30.824219 -21.507812 L 31.070312 -21.671875 L 31.308594 -21.839844 L 31.539062 -22.019531 L 31.761719 -22.207031 L 31.980469 -22.40625 L 32.191406 -22.609375 L 32.390625 -22.820312 L 32.585938 -23.046875 L 32.773438 -23.273438 L 32.949219 -23.507812 L 33.113281 -23.75 L 33.273438 -24 L 33.425781 -24.253906 L 33.566406 -24.515625 L 33.695312 -24.785156 L 33.816406 -25.058594 L 33.925781 -25.335938 L 34.023438 -25.625 L 34.113281 -25.910156 L 34.1875 -26.207031 L 34.253906 -26.503906 L 34.308594 -26.808594 L 34.351562 -27.117188 L 34.382812 -27.425781 L 34.402344 -27.742188 L 34.410156 -28.058594 L 34.410156 -35.78125 Z M 30.832031 -27.5625 L 30.796875 -27.320312 L 30.746094 -27.085938 L 30.683594 -26.855469 L 30.609375 -26.628906 L 30.519531 -26.410156 L 30.421875 -26.195312 L 30.3125 -25.992188 L 30.191406 -25.792969 L 30.054688 -25.601562 L 29.914062 -25.417969 L 29.761719 -25.246094 L 29.597656 -25.082031 L 29.429688 -24.925781 L 29.25 -24.78125 L 29.0625 -24.644531 L 28.867188 -24.523438 L 28.664062 -24.40625 L 28.453125 -24.308594 L 28.238281 -24.21875 L 28.015625 -24.140625 L 27.789062 -24.078125 L 27.558594 -24.027344 L 27.320312 -23.992188 L 27.078125 -23.96875 L 26.832031 -23.960938 L 26.589844 -23.96875 L 26.347656 -23.992188 L 26.109375 -24.027344 L 25.875 -24.078125 L 25.648438 -24.140625 L 25.429688 -24.21875 L 25.210938 -24.308594 L 25.003906 -24.40625 L 24.800781 -24.523438 L 24.605469 -24.644531 L 24.417969 -24.78125 L 24.238281 -24.925781 L 24.066406 -25.082031 L 23.90625 -25.246094 L 23.753906 -25.417969 L 23.609375 -25.601562 L 23.476562 -25.792969 L 23.355469 -25.992188 L 23.242188 -26.195312 L 23.144531 -26.410156 L 23.058594 -26.628906 L 22.980469 -26.855469 L 22.921875 -27.085938 L 22.871094 -27.320312 L 22.835938 -27.5625 L 22.8125 -27.808594 L 22.804688 -28.058594 L 22.804688 -33.976562 L 30.859375 -33.976562 L 30.859375 -28.058594 L 30.855469 -27.808594 Z M 30.832031 -27.5625 "/>
</clipPath>
<linearGradient id="linear0" gradientUnits="userSpaceOnUse" x1="250" y1="169.349991" x2="250" y2="334.669983" gradientTransform="matrix(0,0.242082,-0.238034,0,81.019258,-91.77204)">
<stop offset="0" style="stop-color:rgb(17.254902%,92.54902%,100%);stop-opacity:1;"/>
<stop offset="0.00390625" style="stop-color:rgb(17.647059%,92.156863%,100%);stop-opacity:1;"/>
<stop offset="0.0078125" style="stop-color:rgb(18.039216%,92.156863%,100%);stop-opacity:1;"/>
<stop offset="0.0117187" style="stop-color:rgb(18.431373%,91.764706%,100%);stop-opacity:1;"/>
<stop offset="0.015625" style="stop-color:rgb(18.431373%,91.764706%,100%);stop-opacity:1;"/>
<stop offset="0.0195312" style="stop-color:rgb(18.823529%,91.764706%,100%);stop-opacity:1;"/>
<stop offset="0.0234375" style="stop-color:rgb(19.215686%,91.372549%,100%);stop-opacity:1;"/>
<stop offset="0.0273438" style="stop-color:rgb(19.607843%,91.372549%,100%);stop-opacity:1;"/>
<stop offset="0.03125" style="stop-color:rgb(20%,90.980392%,100%);stop-opacity:1;"/>
<stop offset="0.0351562" style="stop-color:rgb(20%,90.980392%,100%);stop-opacity:1;"/>
<stop offset="0.0390625" style="stop-color:rgb(20.392157%,90.588235%,100%);stop-opacity:1;"/>
<stop offset="0.0429688" style="stop-color:rgb(20.784314%,90.588235%,100%);stop-opacity:1;"/>
<stop offset="0.046875" style="stop-color:rgb(21.176471%,90.196078%,100%);stop-opacity:1;"/>
<stop offset="0.0507812" style="stop-color:rgb(21.568627%,90.196078%,100%);stop-opacity:1;"/>
<stop offset="0.0546875" style="stop-color:rgb(21.568627%,89.803922%,100%);stop-opacity:1;"/>
<stop offset="0.0585937" style="stop-color:rgb(21.960784%,89.803922%,100%);stop-opacity:1;"/>
<stop offset="0.0625" style="stop-color:rgb(22.352941%,89.411765%,100%);stop-opacity:1;"/>
<stop offset="0.0664062" style="stop-color:rgb(22.745098%,89.411765%,100%);stop-opacity:1;"/>
<stop offset="0.0703125" style="stop-color:rgb(23.137255%,89.411765%,100%);stop-opacity:1;"/>
<stop offset="0.0742188" style="stop-color:rgb(23.137255%,89.019608%,100%);stop-opacity:1;"/>
<stop offset="0.078125" style="stop-color:rgb(23.529412%,89.019608%,100%);stop-opacity:1;"/>
<stop offset="0.0820313" style="stop-color:rgb(23.921569%,88.627451%,100%);stop-opacity:1;"/>
<stop offset="0.0859375" style="stop-color:rgb(24.313725%,88.627451%,100%);stop-opacity:1;"/>
<stop offset="0.0898437" style="stop-color:rgb(24.705882%,88.235294%,100%);stop-opacity:1;"/>
<stop offset="0.09375" style="stop-color:rgb(24.705882%,88.235294%,100%);stop-opacity:1;"/>
<stop offset="0.0976562" style="stop-color:rgb(25.098039%,87.843137%,100%);stop-opacity:1;"/>
<stop offset="0.101562" style="stop-color:rgb(25.490196%,87.843137%,100%);stop-opacity:1;"/>
<stop offset="0.105469" style="stop-color:rgb(25.882353%,87.45098%,100%);stop-opacity:1;"/>
<stop offset="0.109375" style="stop-color:rgb(26.27451%,87.45098%,100%);stop-opacity:1;"/>
<stop offset="0.113281" style="stop-color:rgb(26.27451%,87.058824%,100%);stop-opacity:1;"/>
<stop offset="0.117187" style="stop-color:rgb(26.666667%,87.058824%,100%);stop-opacity:1;"/>
<stop offset="0.121094" style="stop-color:rgb(27.058824%,86.666667%,100%);stop-opacity:1;"/>
<stop offset="0.125" style="stop-color:rgb(27.45098%,86.666667%,100%);stop-opacity:1;"/>
<stop offset="0.128906" style="stop-color:rgb(27.843137%,86.666667%,100%);stop-opacity:1;"/>
<stop offset="0.132812" style="stop-color:rgb(27.843137%,86.27451%,100%);stop-opacity:1;"/>
<stop offset="0.136719" style="stop-color:rgb(28.235294%,86.27451%,100%);stop-opacity:1;"/>
<stop offset="0.140625" style="stop-color:rgb(28.627451%,85.882353%,100%);stop-opacity:1;"/>
<stop offset="0.144531" style="stop-color:rgb(29.019608%,85.882353%,100%);stop-opacity:1;"/>
<stop offset="0.148437" style="stop-color:rgb(29.411765%,85.490196%,100%);stop-opacity:1;"/>
<stop offset="0.152344" style="stop-color:rgb(29.411765%,85.490196%,100%);stop-opacity:1;"/>
<stop offset="0.15625" style="stop-color:rgb(29.803922%,85.098039%,100%);stop-opacity:1;"/>
<stop offset="0.160156" style="stop-color:rgb(30.196078%,85.098039%,100%);stop-opacity:1;"/>
<stop offset="0.164062" style="stop-color:rgb(30.588235%,84.705882%,100%);stop-opacity:1;"/>
<stop offset="0.167969" style="stop-color:rgb(30.980392%,84.705882%,100%);stop-opacity:1;"/>
<stop offset="0.171875" style="stop-color:rgb(30.980392%,84.313725%,100%);stop-opacity:1;"/>
<stop offset="0.175781" style="stop-color:rgb(31.372549%,84.313725%,100%);stop-opacity:1;"/>
<stop offset="0.179687" style="stop-color:rgb(31.764706%,84.313725%,100%);stop-opacity:1;"/>
<stop offset="0.183594" style="stop-color:rgb(32.156863%,83.921569%,100%);stop-opacity:1;"/>
<stop offset="0.1875" style="stop-color:rgb(32.54902%,83.921569%,100%);stop-opacity:1;"/>
<stop offset="0.191406" style="stop-color:rgb(32.54902%,83.529412%,100%);stop-opacity:1;"/>
<stop offset="0.195312" style="stop-color:rgb(32.941176%,83.529412%,100%);stop-opacity:1;"/>
<stop offset="0.199219" style="stop-color:rgb(33.333333%,83.137255%,100%);stop-opacity:1;"/>
<stop offset="0.203125" style="stop-color:rgb(33.72549%,83.137255%,100%);stop-opacity:1;"/>
<stop offset="0.207031" style="stop-color:rgb(34.117647%,82.745098%,100%);stop-opacity:1;"/>
<stop offset="0.210937" style="stop-color:rgb(34.117647%,82.745098%,100%);stop-opacity:1;"/>
<stop offset="0.214844" style="stop-color:rgb(34.509804%,82.352941%,100%);stop-opacity:1;"/>
<stop offset="0.21875" style="stop-color:rgb(34.901961%,82.352941%,100%);stop-opacity:1;"/>
<stop offset="0.222656" style="stop-color:rgb(35.294118%,81.960784%,100%);stop-opacity:1;"/>
<stop offset="0.226562" style="stop-color:rgb(35.686275%,81.960784%,100%);stop-opacity:1;"/>
<stop offset="0.230469" style="stop-color:rgb(35.686275%,81.568627%,100%);stop-opacity:1;"/>
<stop offset="0.234375" style="stop-color:rgb(36.078431%,81.568627%,100%);stop-opacity:1;"/>
<stop offset="0.238281" style="stop-color:rgb(36.470588%,81.568627%,100%);stop-opacity:1;"/>
<stop offset="0.242188" style="stop-color:rgb(36.862745%,81.176471%,100%);stop-opacity:1;"/>
<stop offset="0.246094" style="stop-color:rgb(37.254902%,81.176471%,100%);stop-opacity:1;"/>
<stop offset="0.25" style="stop-color:rgb(37.254902%,80.784314%,100%);stop-opacity:1;"/>
<stop offset="0.253906" style="stop-color:rgb(37.647059%,80.784314%,100%);stop-opacity:1;"/>
<stop offset="0.257812" style="stop-color:rgb(38.039216%,80.392157%,100%);stop-opacity:1;"/>
<stop offset="0.261719" style="stop-color:rgb(38.431373%,80.392157%,100%);stop-opacity:1;"/>
<stop offset="0.265625" style="stop-color:rgb(38.823529%,80%,100%);stop-opacity:1;"/>
<stop offset="0.269531" style="stop-color:rgb(38.823529%,80%,100%);stop-opacity:1;"/>
<stop offset="0.273438" style="stop-color:rgb(39.215686%,79.607843%,100%);stop-opacity:1;"/>
<stop offset="0.277344" style="stop-color:rgb(39.607843%,79.607843%,100%);stop-opacity:1;"/>
<stop offset="0.28125" style="stop-color:rgb(40%,79.215686%,100%);stop-opacity:1;"/>
<stop offset="0.285156" style="stop-color:rgb(40.392157%,79.215686%,100%);stop-opacity:1;"/>
<stop offset="0.289063" style="stop-color:rgb(40.392157%,79.215686%,100%);stop-opacity:1;"/>
<stop offset="0.292969" style="stop-color:rgb(40.784314%,78.823529%,100%);stop-opacity:1;"/>
<stop offset="0.296875" style="stop-color:rgb(41.176471%,78.823529%,100%);stop-opacity:1;"/>
<stop offset="0.300781" style="stop-color:rgb(41.568627%,78.431373%,100%);stop-opacity:1;"/>
<stop offset="0.304688" style="stop-color:rgb(41.960784%,78.431373%,100%);stop-opacity:1;"/>
<stop offset="0.308594" style="stop-color:rgb(41.960784%,78.039216%,100%);stop-opacity:1;"/>
<stop offset="0.3125" style="stop-color:rgb(42.352941%,78.039216%,100%);stop-opacity:1;"/>
<stop offset="0.316406" style="stop-color:rgb(42.745098%,77.647059%,100%);stop-opacity:1;"/>
<stop offset="0.320312" style="stop-color:rgb(43.137255%,77.647059%,100%);stop-opacity:1;"/>
<stop offset="0.324219" style="stop-color:rgb(43.529412%,77.254902%,100%);stop-opacity:1;"/>
<stop offset="0.328125" style="stop-color:rgb(43.529412%,77.254902%,100%);stop-opacity:1;"/>
<stop offset="0.332031" style="stop-color:rgb(43.921569%,76.862745%,100%);stop-opacity:1;"/>
<stop offset="0.335938" style="stop-color:rgb(44.313725%,76.862745%,100%);stop-opacity:1;"/>
<stop offset="0.339844" style="stop-color:rgb(44.705882%,76.470588%,100%);stop-opacity:1;"/>
<stop offset="0.34375" style="stop-color:rgb(45.098039%,76.470588%,100%);stop-opacity:1;"/>
<stop offset="0.347656" style="stop-color:rgb(45.098039%,76.470588%,100%);stop-opacity:1;"/>
<stop offset="0.351562" style="stop-color:rgb(45.490196%,76.078431%,100%);stop-opacity:1;"/>
<stop offset="0.355469" style="stop-color:rgb(45.882353%,76.078431%,100%);stop-opacity:1;"/>
<stop offset="0.359375" style="stop-color:rgb(46.27451%,75.686275%,100%);stop-opacity:1;"/>
<stop offset="0.363281" style="stop-color:rgb(46.666667%,75.686275%,100%);stop-opacity:1;"/>
<stop offset="0.367188" style="stop-color:rgb(46.666667%,75.294118%,100%);stop-opacity:1;"/>
<stop offset="0.371094" style="stop-color:rgb(47.058824%,75.294118%,100%);stop-opacity:1;"/>
<stop offset="0.375" style="stop-color:rgb(47.45098%,74.901961%,100%);stop-opacity:1;"/>
<stop offset="0.378906" style="stop-color:rgb(47.843137%,74.901961%,100%);stop-opacity:1;"/>
<stop offset="0.382812" style="stop-color:rgb(48.235294%,74.509804%,100%);stop-opacity:1;"/>
<stop offset="0.386719" style="stop-color:rgb(48.235294%,74.509804%,100%);stop-opacity:1;"/>
<stop offset="0.390625" style="stop-color:rgb(48.627451%,74.117647%,100%);stop-opacity:1;"/>
<stop offset="0.394531" style="stop-color:rgb(49.019608%,74.117647%,100%);stop-opacity:1;"/>
<stop offset="0.398437" style="stop-color:rgb(49.411765%,74.117647%,100%);stop-opacity:1;"/>
<stop offset="0.402344" style="stop-color:rgb(49.411765%,73.72549%,100%);stop-opacity:1;"/>
<stop offset="0.40625" style="stop-color:rgb(49.803922%,73.72549%,100%);stop-opacity:1;"/>
<stop offset="0.410156" style="stop-color:rgb(50.196078%,73.333333%,100%);stop-opacity:1;"/>
<stop offset="0.414062" style="stop-color:rgb(50.588235%,73.333333%,100%);stop-opacity:1;"/>
<stop offset="0.417969" style="stop-color:rgb(50.980392%,72.941176%,100%);stop-opacity:1;"/>
<stop offset="0.421875" style="stop-color:rgb(50.980392%,72.941176%,100%);stop-opacity:1;"/>
<stop offset="0.425781" style="stop-color:rgb(51.372549%,72.54902%,100%);stop-opacity:1;"/>
<stop offset="0.429687" style="stop-color:rgb(51.764706%,72.54902%,100%);stop-opacity:1;"/>
<stop offset="0.433594" style="stop-color:rgb(52.156863%,72.156863%,100%);stop-opacity:1;"/>
<stop offset="0.4375" style="stop-color:rgb(52.54902%,72.156863%,100%);stop-opacity:1;"/>
<stop offset="0.441406" style="stop-color:rgb(52.54902%,71.764706%,100%);stop-opacity:1;"/>
<stop offset="0.445312" style="stop-color:rgb(52.941176%,71.764706%,100%);stop-opacity:1;"/>
<stop offset="0.449219" style="stop-color:rgb(53.333333%,71.372549%,100%);stop-opacity:1;"/>
<stop offset="0.453125" style="stop-color:rgb(53.72549%,71.372549%,100%);stop-opacity:1;"/>
<stop offset="0.457031" style="stop-color:rgb(54.117647%,71.372549%,100%);stop-opacity:1;"/>
<stop offset="0.460938" style="stop-color:rgb(54.117647%,70.980392%,100%);stop-opacity:1;"/>
<stop offset="0.464844" style="stop-color:rgb(54.509804%,70.980392%,100%);stop-opacity:1;"/>
<stop offset="0.46875" style="stop-color:rgb(54.901961%,70.588235%,100%);stop-opacity:1;"/>
<stop offset="0.472656" style="stop-color:rgb(55.294118%,70.588235%,100%);stop-opacity:1;"/>
<stop offset="0.476562" style="stop-color:rgb(55.686275%,70.196078%,100%);stop-opacity:1;"/>
<stop offset="0.480469" style="stop-color:rgb(55.686275%,70.196078%,100%);stop-opacity:1;"/>
<stop offset="0.484375" style="stop-color:rgb(56.078431%,69.803922%,100%);stop-opacity:1;"/>
<stop offset="0.488281" style="stop-color:rgb(56.470588%,69.803922%,100%);stop-opacity:1;"/>
<stop offset="0.492188" style="stop-color:rgb(56.862745%,69.411765%,100%);stop-opacity:1;"/>
<stop offset="0.496094" style="stop-color:rgb(57.254902%,69.411765%,100%);stop-opacity:1;"/>
<stop offset="0.5" style="stop-color:rgb(57.254902%,69.019608%,100%);stop-opacity:1;"/>
<stop offset="0.503906" style="stop-color:rgb(57.647059%,69.019608%,100%);stop-opacity:1;"/>
<stop offset="0.507812" style="stop-color:rgb(58.039216%,69.019608%,100%);stop-opacity:1;"/>
<stop offset="0.511719" style="stop-color:rgb(58.431373%,68.627451%,100%);stop-opacity:1;"/>
<stop offset="0.515625" style="stop-color:rgb(58.823529%,68.627451%,100%);stop-opacity:1;"/>
<stop offset="0.519531" style="stop-color:rgb(58.823529%,68.235294%,100%);stop-opacity:1;"/>
<stop offset="0.523438" style="stop-color:rgb(59.215686%,68.235294%,100%);stop-opacity:1;"/>
<stop offset="0.527344" style="stop-color:rgb(59.607843%,67.843137%,100%);stop-opacity:1;"/>
<stop offset="0.53125" style="stop-color:rgb(60%,67.843137%,100%);stop-opacity:1;"/>
<stop offset="0.535156" style="stop-color:rgb(60.392157%,67.45098%,100%);stop-opacity:1;"/>
<stop offset="0.539062" style="stop-color:rgb(60.392157%,67.45098%,100%);stop-opacity:1;"/>
<stop offset="0.542969" style="stop-color:rgb(60.784314%,67.058824%,100%);stop-opacity:1;"/>
<stop offset="0.546875" style="stop-color:rgb(61.176471%,67.058824%,100%);stop-opacity:1;"/>
<stop offset="0.550781" style="stop-color:rgb(61.568627%,66.666667%,100%);stop-opacity:1;"/>
<stop offset="0.554688" style="stop-color:rgb(61.960784%,66.666667%,100%);stop-opacity:1;"/>
<stop offset="0.558594" style="stop-color:rgb(61.960784%,66.27451%,100%);stop-opacity:1;"/>
<stop offset="0.5625" style="stop-color:rgb(62.352941%,66.27451%,100%);stop-opacity:1;"/>
<stop offset="0.566406" style="stop-color:rgb(62.745098%,66.27451%,100%);stop-opacity:1;"/>
<stop offset="0.570312" style="stop-color:rgb(63.137255%,65.882353%,100%);stop-opacity:1;"/>
<stop offset="0.574219" style="stop-color:rgb(63.529412%,65.882353%,100%);stop-opacity:1;"/>
<stop offset="0.578125" style="stop-color:rgb(63.529412%,65.490196%,100%);stop-opacity:1;"/>
<stop offset="0.582031" style="stop-color:rgb(63.921569%,65.490196%,100%);stop-opacity:1;"/>
<stop offset="0.585938" style="stop-color:rgb(64.313725%,65.098039%,100%);stop-opacity:1;"/>
<stop offset="0.589844" style="stop-color:rgb(64.705882%,65.098039%,100%);stop-opacity:1;"/>
<stop offset="0.59375" style="stop-color:rgb(65.098039%,64.705882%,100%);stop-opacity:1;"/>
<stop offset="0.597656" style="stop-color:rgb(65.098039%,64.705882%,100%);stop-opacity:1;"/>
<stop offset="0.601562" style="stop-color:rgb(65.490196%,64.313725%,100%);stop-opacity:1;"/>
<stop offset="0.605469" style="stop-color:rgb(65.882353%,64.313725%,100%);stop-opacity:1;"/>
<stop offset="0.609375" style="stop-color:rgb(66.27451%,63.921569%,100%);stop-opacity:1;"/>
<stop offset="0.613281" style="stop-color:rgb(66.666667%,63.921569%,100%);stop-opacity:1;"/>
<stop offset="0.617188" style="stop-color:rgb(66.666667%,63.921569%,100%);stop-opacity:1;"/>
<stop offset="0.621094" style="stop-color:rgb(67.058824%,63.529412%,100%);stop-opacity:1;"/>
<stop offset="0.625" style="stop-color:rgb(67.45098%,63.529412%,100%);stop-opacity:1;"/>
<stop offset="0.628906" style="stop-color:rgb(67.843137%,63.137255%,100%);stop-opacity:1;"/>
<stop offset="0.632813" style="stop-color:rgb(68.235294%,63.137255%,100%);stop-opacity:1;"/>
<stop offset="0.636719" style="stop-color:rgb(68.235294%,62.745098%,100%);stop-opacity:1;"/>
<stop offset="0.640625" style="stop-color:rgb(68.627451%,62.745098%,100%);stop-opacity:1;"/>
<stop offset="0.644531" style="stop-color:rgb(69.019608%,62.352941%,100%);stop-opacity:1;"/>
<stop offset="0.648438" style="stop-color:rgb(69.411765%,62.352941%,100%);stop-opacity:1;"/>
<stop offset="0.652344" style="stop-color:rgb(69.803922%,61.960784%,100%);stop-opacity:1;"/>
<stop offset="0.65625" style="stop-color:rgb(69.803922%,61.960784%,100%);stop-opacity:1;"/>
<stop offset="0.660156" style="stop-color:rgb(70.196078%,61.568627%,100%);stop-opacity:1;"/>
<stop offset="0.664062" style="stop-color:rgb(70.588235%,61.568627%,100%);stop-opacity:1;"/>
<stop offset="0.667969" style="stop-color:rgb(70.980392%,61.176471%,100%);stop-opacity:1;"/>
<stop offset="0.671875" style="stop-color:rgb(71.372549%,61.176471%,100%);stop-opacity:1;"/>
<stop offset="0.675781" style="stop-color:rgb(71.372549%,61.176471%,100%);stop-opacity:1;"/>
<stop offset="0.679688" style="stop-color:rgb(71.764706%,60.784314%,100%);stop-opacity:1;"/>
<stop offset="0.683594" style="stop-color:rgb(72.156863%,60.784314%,100%);stop-opacity:1;"/>
<stop offset="0.6875" style="stop-color:rgb(72.54902%,60.392157%,100%);stop-opacity:1;"/>
<stop offset="0.691406" style="stop-color:rgb(72.941176%,60.392157%,100%);stop-opacity:1;"/>
<stop offset="0.695312" style="stop-color:rgb(72.941176%,60%,100%);stop-opacity:1;"/>
<stop offset="0.699219" style="stop-color:rgb(73.333333%,60%,100%);stop-opacity:1;"/>
<stop offset="0.703125" style="stop-color:rgb(73.72549%,59.607843%,100%);stop-opacity:1;"/>
<stop offset="0.707031" style="stop-color:rgb(74.117647%,59.607843%,100%);stop-opacity:1;"/>
<stop offset="0.710938" style="stop-color:rgb(74.509804%,59.215686%,100%);stop-opacity:1;"/>
<stop offset="0.714844" style="stop-color:rgb(74.509804%,59.215686%,100%);stop-opacity:1;"/>
<stop offset="0.71875" style="stop-color:rgb(74.901961%,58.823529%,100%);stop-opacity:1;"/>
<stop offset="0.722656" style="stop-color:rgb(75.294118%,58.823529%,100%);stop-opacity:1;"/>
<stop offset="0.726562" style="stop-color:rgb(75.686275%,58.823529%,100%);stop-opacity:1;"/>
<stop offset="0.730469" style="stop-color:rgb(76.078431%,58.431373%,100%);stop-opacity:1;"/>
<stop offset="0.734375" style="stop-color:rgb(76.078431%,58.431373%,100%);stop-opacity:1;"/>
<stop offset="0.738281" style="stop-color:rgb(76.470588%,58.039216%,100%);stop-opacity:1;"/>
<stop offset="0.742187" style="stop-color:rgb(76.862745%,58.039216%,100%);stop-opacity:1;"/>
<stop offset="0.746094" style="stop-color:rgb(77.254902%,57.647059%,100%);stop-opacity:1;"/>
<stop offset="0.75" style="stop-color:rgb(77.647059%,57.647059%,100%);stop-opacity:1;"/>
<stop offset="0.753906" style="stop-color:rgb(77.647059%,57.254902%,100%);stop-opacity:1;"/>
<stop offset="0.757812" style="stop-color:rgb(78.039216%,57.254902%,100%);stop-opacity:1;"/>
<stop offset="0.761719" style="stop-color:rgb(78.431373%,56.862745%,100%);stop-opacity:1;"/>
<stop offset="0.765625" style="stop-color:rgb(78.823529%,56.862745%,100%);stop-opacity:1;"/>
<stop offset="0.769531" style="stop-color:rgb(79.215686%,56.470588%,100%);stop-opacity:1;"/>
<stop offset="0.773438" style="stop-color:rgb(79.215686%,56.470588%,100%);stop-opacity:1;"/>
<stop offset="0.777344" style="stop-color:rgb(79.607843%,56.078431%,100%);stop-opacity:1;"/>
<stop offset="0.78125" style="stop-color:rgb(80%,56.078431%,100%);stop-opacity:1;"/>
<stop offset="0.785156" style="stop-color:rgb(80.392157%,56.078431%,100%);stop-opacity:1;"/>
<stop offset="0.789062" style="stop-color:rgb(80.784314%,55.686275%,100%);stop-opacity:1;"/>
<stop offset="0.792969" style="stop-color:rgb(80.784314%,55.686275%,100%);stop-opacity:1;"/>
<stop offset="0.796875" style="stop-color:rgb(81.176471%,55.294118%,100%);stop-opacity:1;"/>
<stop offset="0.800781" style="stop-color:rgb(81.568627%,55.294118%,100%);stop-opacity:1;"/>
<stop offset="0.804688" style="stop-color:rgb(81.960784%,54.901961%,100%);stop-opacity:1;"/>
<stop offset="0.808594" style="stop-color:rgb(82.352941%,54.901961%,100%);stop-opacity:1;"/>
<stop offset="0.8125" style="stop-color:rgb(82.352941%,54.509804%,100%);stop-opacity:1;"/>
<stop offset="0.816406" style="stop-color:rgb(82.745098%,54.509804%,100%);stop-opacity:1;"/>
<stop offset="0.820312" style="stop-color:rgb(83.137255%,54.117647%,100%);stop-opacity:1;"/>
<stop offset="0.824219" style="stop-color:rgb(83.529412%,54.117647%,100%);stop-opacity:1;"/>
<stop offset="0.828125" style="stop-color:rgb(83.921569%,53.72549%,100%);stop-opacity:1;"/>
<stop offset="0.832031" style="stop-color:rgb(83.921569%,53.72549%,100%);stop-opacity:1;"/>
<stop offset="0.835938" style="stop-color:rgb(84.313725%,53.72549%,100%);stop-opacity:1;"/>
<stop offset="0.839844" style="stop-color:rgb(84.705882%,53.333333%,100%);stop-opacity:1;"/>
<stop offset="0.84375" style="stop-color:rgb(85.098039%,53.333333%,100%);stop-opacity:1;"/>
<stop offset="0.847656" style="stop-color:rgb(85.490196%,52.941176%,100%);stop-opacity:1;"/>
<stop offset="0.851562" style="stop-color:rgb(85.490196%,52.941176%,100%);stop-opacity:1;"/>
<stop offset="0.855469" style="stop-color:rgb(85.882353%,52.54902%,100%);stop-opacity:1;"/>
<stop offset="0.859375" style="stop-color:rgb(86.27451%,52.54902%,100%);stop-opacity:1;"/>
<stop offset="0.863281" style="stop-color:rgb(86.666667%,52.156863%,100%);stop-opacity:1;"/>
<stop offset="0.867188" style="stop-color:rgb(87.058824%,52.156863%,100%);stop-opacity:1;"/>
<stop offset="0.871094" style="stop-color:rgb(87.058824%,51.764706%,100%);stop-opacity:1;"/>
<stop offset="0.875" style="stop-color:rgb(87.45098%,51.764706%,100%);stop-opacity:1;"/>
<stop offset="0.878906" style="stop-color:rgb(87.843137%,51.372549%,100%);stop-opacity:1;"/>
<stop offset="0.882812" style="stop-color:rgb(88.235294%,51.372549%,100%);stop-opacity:1;"/>
<stop offset="0.886719" style="stop-color:rgb(88.627451%,51.372549%,100%);stop-opacity:1;"/>
<stop offset="0.890625" style="stop-color:rgb(88.627451%,50.980392%,100%);stop-opacity:1;"/>
<stop offset="0.894531" style="stop-color:rgb(89.019608%,50.980392%,100%);stop-opacity:1;"/>
<stop offset="0.898438" style="stop-color:rgb(89.411765%,50.588235%,100%);stop-opacity:1;"/>
<stop offset="0.902344" style="stop-color:rgb(89.803922%,50.588235%,100%);stop-opacity:1;"/>
<stop offset="0.90625" style="stop-color:rgb(90.196078%,50.196078%,100%);stop-opacity:1;"/>
<stop offset="0.910156" style="stop-color:rgb(90.196078%,50.196078%,100%);stop-opacity:1;"/>
<stop offset="0.914062" style="stop-color:rgb(90.588235%,49.803922%,100%);stop-opacity:1;"/>
<stop offset="0.917969" style="stop-color:rgb(90.980392%,49.803922%,100%);stop-opacity:1;"/>
<stop offset="0.921875" style="stop-color:rgb(91.372549%,49.411765%,100%);stop-opacity:1;"/>
<stop offset="0.925781" style="stop-color:rgb(91.764706%,49.411765%,100%);stop-opacity:1;"/>
<stop offset="0.929688" style="stop-color:rgb(91.764706%,49.019608%,100%);stop-opacity:1;"/>
<stop offset="0.933594" style="stop-color:rgb(92.156863%,49.019608%,100%);stop-opacity:1;"/>
<stop offset="0.9375" style="stop-color:rgb(92.54902%,48.627451%,100%);stop-opacity:1;"/>
<stop offset="0.941406" style="stop-color:rgb(92.941176%,48.627451%,100%);stop-opacity:1;"/>
<stop offset="0.945313" style="stop-color:rgb(93.333333%,48.627451%,100%);stop-opacity:1;"/>
<stop offset="0.949219" style="stop-color:rgb(93.333333%,48.235294%,100%);stop-opacity:1;"/>
<stop offset="0.953125" style="stop-color:rgb(93.72549%,48.235294%,100%);stop-opacity:1;"/>
<stop offset="0.957031" style="stop-color:rgb(94.117647%,47.843137%,100%);stop-opacity:1;"/>
<stop offset="0.960938" style="stop-color:rgb(94.509804%,47.843137%,100%);stop-opacity:1;"/>
<stop offset="0.964844" style="stop-color:rgb(94.901961%,47.45098%,100%);stop-opacity:1;"/>
<stop offset="0.96875" style="stop-color:rgb(94.901961%,47.45098%,100%);stop-opacity:1;"/>
<stop offset="0.972656" style="stop-color:rgb(95.294118%,47.058824%,100%);stop-opacity:1;"/>
<stop offset="0.976562" style="stop-color:rgb(95.686275%,47.058824%,100%);stop-opacity:1;"/>
<stop offset="0.980469" style="stop-color:rgb(96.078431%,46.666667%,100%);stop-opacity:1;"/>
<stop offset="0.984375" style="stop-color:rgb(96.470588%,46.666667%,100%);stop-opacity:1;"/>
<stop offset="0.988281" style="stop-color:rgb(96.470588%,46.27451%,100%);stop-opacity:1;"/>
<stop offset="0.992188" style="stop-color:rgb(96.862745%,46.27451%,100%);stop-opacity:1;"/>
<stop offset="0.996094" style="stop-color:rgb(97.254902%,46.27451%,100%);stop-opacity:1;"/>
<stop offset="1" style="stop-color:rgb(97.647059%,45.882353%,100%);stop-opacity:1;"/>
</linearGradient>
</defs>
<g id="surface1">
<g clip-path="url(#clip1)" clip-rule="nonzero">
<g clip-path="url(#clip2)" clip-rule="nonzero">
<g clip-path="url(#clip3)" clip-rule="nonzero">
<path style=" stroke:none;fill-rule:nonzero;fill:url(#linear0);" d="M 40.707031 4.894531 L 1.355469 4.894531 L 1.355469 26.847656 L 40.707031 26.847656 Z M 40.707031 4.894531 "/>
</g>
</g>
</g>
<path style=" stroke:none;fill-rule:nonzero;fill:rgb(0%,0%,0%);fill-opacity:1;" d="M 9.84375 11.792969 L 11.871094 16.769531 L 11.933594 16.769531 L 13.914062 11.792969 L 16.039062 11.792969 L 16.039062 12.132812 L 12.367188 20.691406 L 11.425781 20.691406 L 7.714844 12.132812 L 7.714844 11.792969 Z M 9.84375 11.792969 "/>
<path style=" stroke:none;fill-rule:nonzero;fill:rgb(0%,0%,0%);fill-opacity:1;" d="M 19.539062 20.589844 C 19.167969 20.589844 18.796875 20.589844 18.425781 20.589844 C 18.054688 20.589844 17.6875 20.589844 17.324219 20.589844 C 17.324219 19.125 17.324219 17.660156 17.324219 16.195312 C 17.324219 14.726562 17.324219 13.261719 17.324219 11.792969 C 17.953125 11.792969 18.585938 11.792969 19.222656 11.792969 C 19.863281 11.792969 20.5 11.792969 21.136719 11.792969 C 21.726562 11.792969 22.234375 11.914062 22.65625 12.152344 C 23.074219 12.390625 23.414062 12.703125 23.667969 13.09375 C 23.925781 13.484375 24.09375 13.910156 24.175781 14.375 C 24.257812 14.84375 24.257812 15.308594 24.175781 15.773438 C 24.09375 16.234375 23.925781 16.664062 23.667969 17.050781 C 23.414062 17.441406 23.074219 17.753906 22.65625 17.988281 C 22.234375 18.222656 21.726562 18.339844 21.136719 18.339844 L 19.539062 18.339844 Z M 21.121094 16.320312 C 21.359375 16.320312 21.554688 16.234375 21.707031 16.066406 C 21.863281 15.898438 21.964844 15.6875 22.019531 15.4375 C 22.074219 15.1875 22.078125 14.9375 22.03125 14.691406 C 21.984375 14.445312 21.886719 14.234375 21.730469 14.0625 C 21.582031 13.890625 21.375 13.804688 21.121094 13.804688 C 20.867188 13.796875 20.601562 13.792969 20.332031 13.796875 C 20.058594 13.804688 19.792969 13.804688 19.539062 13.804688 C 19.539062 14.039062 19.539062 14.308594 19.539062 14.609375 C 19.539062 14.910156 19.539062 15.210938 19.539062 15.507812 C 19.539062 15.804688 19.539062 16.074219 19.539062 16.320312 Z M 21.121094 16.320312 "/>
<path style=" stroke:none;fill-rule:nonzero;fill:rgb(0%,0%,0%);fill-opacity:1;" d="M 32.5625 20.601562 L 28.195312 16.265625 L 28.195312 20.589844 C 27.816406 20.589844 27.433594 20.589844 27.050781 20.589844 C 26.667969 20.589844 26.285156 20.589844 25.90625 20.589844 L 25.90625 11.757812 L 26.710938 11.757812 L 31.089844 16.105469 L 31.089844 11.792969 C 31.46875 11.792969 31.84375 11.792969 32.21875 11.792969 C 32.597656 11.792969 32.972656 11.792969 33.355469 11.792969 L 33.355469 20.601562 Z M 32.5625 20.601562 "/>
</g>
</svg>
