<svg xmlns="http://www.w3.org/2000/svg" xmlns:xlink="http://www.w3.org/1999/xlink" width="400" zoomAndPan="magnify" viewBox="0 0 300 74.999997" height="100" preserveAspectRatio="xMidYMid meet" version="1.0"><defs><g/><clipPath id="e9c4edebb7"><path d="M 168 9.140625 L 270.558594 9.140625 L 270.558594 65 L 168 65 Z M 168 9.140625 " clip-rule="nonzero"/></clipPath><clipPath id="fd42d0b3ce"><path d="M 256.308594 9.140625 L 182.011719 9.140625 C 174.140625 9.140625 167.761719 15.519531 167.761719 23.390625 L 167.761719 51.597656 C 167.761719 59.46875 174.140625 65.847656 182.011719 65.847656 L 256.308594 65.847656 C 264.179688 65.847656 270.558594 59.46875 270.558594 51.597656 L 270.558594 23.390625 C 270.558594 15.519531 264.179688 9.140625 256.308594 9.140625 Z M 256.308594 9.140625 " clip-rule="nonzero"/></clipPath><clipPath id="b936c12edd"><path d="M 270.242188 55.546875 L 270.199219 55.960938 L 270.136719 56.359375 L 270.0625 56.761719 L 269.972656 57.15625 L 269.867188 57.546875 L 269.75 57.925781 L 269.613281 58.300781 L 269.464844 58.671875 L 269.296875 59.03125 L 269.125 59.382812 L 268.933594 59.726562 L 268.730469 60.066406 L 268.519531 60.394531 L 268.289062 60.714844 L 268.050781 61.023438 L 267.800781 61.320312 L 267.535156 61.613281 L 267.265625 61.894531 L 266.980469 62.160156 L 266.691406 62.421875 L 266.386719 62.667969 L 266.078125 62.910156 L 265.75 63.128906 L 265.421875 63.339844 L 265.082031 63.539062 L 264.738281 63.730469 L 264.386719 63.902344 L 264.019531 64.058594 L 263.648438 64.207031 L 263.273438 64.335938 L 262.890625 64.453125 L 262.5 64.558594 L 262.105469 64.644531 L 261.703125 64.71875 L 261.300781 64.773438 L 260.886719 64.8125 L 260.472656 64.835938 L 260.054688 64.839844 L 178.261719 64.839844 L 177.84375 64.828125 L 177.429688 64.804688 L 177.019531 64.761719 L 176.613281 64.699219 L 176.210938 64.625 L 175.820312 64.53125 L 175.433594 64.429688 L 175.050781 64.3125 L 174.671875 64.175781 L 174.308594 64.027344 L 173.945312 63.859375 L 173.589844 63.6875 L 173.25 63.496094 L 172.910156 63.292969 L 172.585938 63.082031 L 172.261719 62.851562 L 171.953125 62.613281 L 171.652344 62.363281 L 171.359375 62.097656 L 171.082031 61.828125 L 170.8125 61.542969 L 170.558594 61.253906 L 170.308594 60.949219 L 170.070312 60.640625 L 169.847656 60.3125 L 169.636719 59.988281 L 169.4375 59.648438 L 169.246094 59.300781 L 169.074219 58.949219 L 168.921875 58.585938 L 168.773438 58.214844 L 168.640625 57.835938 L 168.523438 57.453125 L 168.417969 57.066406 L 168.332031 56.671875 L 168.257812 56.269531 L 168.203125 55.867188 L 168.167969 55.453125 L 168.140625 55.039062 L 168.136719 54.621094 L 168.136719 -221.597656 L 168.148438 -222.011719 L 168.179688 -222.425781 L 168.226562 -222.832031 L 168.289062 -223.226562 L 168.363281 -223.628906 L 168.457031 -224.019531 L 168.566406 -224.402344 L 168.683594 -224.777344 L 168.820312 -225.148438 L 168.976562 -225.511719 L 169.136719 -225.871094 L 169.316406 -226.21875 L 169.5 -226.5625 L 169.703125 -226.894531 L 169.921875 -227.21875 L 170.144531 -227.53125 L 170.382812 -227.839844 L 170.632812 -228.136719 L 170.890625 -228.421875 L 171.164062 -228.699219 L 171.445312 -228.972656 L 171.738281 -229.226562 L 172.035156 -229.472656 L 172.34375 -229.699219 L 172.664062 -229.921875 L 172.992188 -230.132812 L 173.324219 -230.332031 L 173.671875 -230.515625 L 174.023438 -230.6875 L 174.382812 -230.847656 L 174.753906 -230.992188 L 175.125 -231.121094 L 175.5 -231.238281 L 175.890625 -231.34375 L 176.277344 -231.429688 L 176.675781 -231.503906 L 177.074219 -231.558594 L 177.484375 -231.601562 L 177.898438 -231.628906 L 178.3125 -231.632812 L 260.054688 -231.632812 L 260.46875 -231.628906 L 260.882812 -231.601562 L 261.289062 -231.566406 L 261.699219 -231.511719 L 262.09375 -231.4375 L 262.488281 -231.351562 L 262.871094 -231.25 L 263.253906 -231.132812 L 263.632812 -231.003906 L 263.996094 -230.863281 L 264.359375 -230.699219 L 264.714844 -230.535156 L 265.058594 -230.347656 L 265.394531 -230.152344 L 265.71875 -229.941406 L 266.042969 -229.71875 L 266.355469 -229.484375 L 266.660156 -229.242188 L 266.949219 -228.984375 L 267.234375 -228.71875 L 267.503906 -228.441406 L 267.765625 -228.15625 L 268.011719 -227.855469 L 268.253906 -227.550781 L 268.480469 -227.230469 L 268.699219 -226.910156 L 268.902344 -226.574219 L 269.09375 -226.230469 L 269.265625 -225.882812 L 269.433594 -225.523438 L 269.582031 -225.160156 L 269.722656 -224.789062 L 269.847656 -224.40625 L 269.953125 -224.023438 L 270.046875 -223.636719 L 270.125 -223.234375 L 270.1875 -222.832031 L 270.238281 -222.425781 L 270.269531 -222.011719 L 270.28125 -221.597656 L 270.28125 54.710938 L 270.269531 55.132812 Z M 253.925781 -38.257812 L 253.90625 -38.441406 L 253.882812 -38.628906 L 253.84375 -38.808594 L 253.808594 -38.988281 L 253.757812 -39.164062 L 253.703125 -39.339844 L 253.648438 -39.503906 L 253.578125 -39.671875 L 253.503906 -39.832031 L 253.425781 -39.992188 L 253.339844 -40.152344 L 253.152344 -40.449219 L 253.046875 -40.597656 L 252.9375 -40.742188 L 252.824219 -40.875 L 252.707031 -41.007812 L 252.585938 -41.128906 L 252.453125 -41.253906 L 252.324219 -41.371094 L 252.1875 -41.480469 L 252.046875 -41.59375 L 251.75 -41.789062 L 251.597656 -41.878906 L 251.441406 -41.964844 L 251.28125 -42.042969 L 251.121094 -42.113281 L 250.945312 -42.179688 L 250.78125 -42.242188 L 250.605469 -42.289062 L 250.429688 -42.339844 L 250.25 -42.378906 L 250.070312 -42.414062 L 249.882812 -42.4375 L 249.699219 -42.457031 L 249.515625 -42.464844 L 249.320312 -42.46875 L 188.902344 -42.46875 L 188.710938 -42.464844 L 188.523438 -42.457031 L 188.339844 -42.433594 L 188.152344 -42.410156 L 187.976562 -42.378906 L 187.796875 -42.335938 L 187.621094 -42.289062 L 187.449219 -42.234375 L 187.277344 -42.171875 L 187.109375 -42.105469 L 186.949219 -42.039062 L 186.789062 -41.957031 L 186.628906 -41.871094 L 186.480469 -41.777344 L 186.332031 -41.6875 L 186.183594 -41.582031 L 186.042969 -41.476562 L 185.90625 -41.363281 L 185.773438 -41.242188 L 185.644531 -41.125 L 185.527344 -40.992188 L 185.40625 -40.863281 L 185.292969 -40.726562 L 185.1875 -40.585938 L 185.082031 -40.4375 L 184.992188 -40.289062 L 184.898438 -40.140625 L 184.8125 -39.980469 L 184.730469 -39.820312 L 184.664062 -39.660156 L 184.59375 -39.492188 L 184.476562 -39.148438 L 184.390625 -38.796875 L 184.359375 -38.617188 L 184.335938 -38.429688 L 184.3125 -38.246094 L 184.304688 -38.058594 L 184.296875 -37.867188 L 184.304688 -37.675781 L 184.3125 -37.492188 L 184.335938 -37.304688 L 184.359375 -37.121094 L 184.390625 -36.941406 L 184.476562 -36.582031 L 184.535156 -36.410156 L 184.59375 -36.242188 L 184.664062 -36.078125 L 184.730469 -35.910156 L 184.8125 -35.75 L 184.898438 -35.59375 L 184.992188 -35.441406 L 185.082031 -35.292969 L 185.1875 -35.144531 L 185.292969 -35.007812 L 185.40625 -34.871094 L 185.527344 -34.738281 L 185.644531 -34.605469 L 185.773438 -34.488281 L 185.90625 -34.371094 L 186.042969 -34.253906 L 186.183594 -34.148438 L 186.332031 -34.046875 L 186.628906 -33.859375 L 186.789062 -33.773438 L 186.949219 -33.691406 L 187.109375 -33.625 L 187.277344 -33.558594 L 187.449219 -33.496094 L 187.621094 -33.441406 L 187.796875 -33.398438 L 187.976562 -33.351562 L 188.152344 -33.324219 L 188.339844 -33.296875 L 188.523438 -33.273438 L 188.710938 -33.265625 L 188.902344 -33.261719 L 233.023438 -33.261719 L 230.960938 -31.980469 L 228.9375 -30.726562 L 226.96875 -29.503906 L 225.046875 -28.3125 L 223.167969 -27.144531 L 221.332031 -26.007812 L 219.546875 -24.902344 L 217.8125 -23.824219 L 216.117188 -22.773438 L 214.46875 -21.753906 L 212.867188 -20.757812 L 211.316406 -19.796875 L 209.808594 -18.855469 L 208.351562 -17.957031 L 206.9375 -17.078125 L 205.566406 -16.226562 L 204.242188 -15.40625 L 201.742188 -13.855469 L 200.554688 -13.117188 L 199.425781 -12.414062 L 198.332031 -11.742188 L 197.285156 -11.09375 L 196.292969 -10.476562 L 195.339844 -9.882812 L 194.4375 -9.320312 L 193.578125 -8.789062 L 192.769531 -8.289062 L 192.003906 -7.8125 L 191.28125 -7.367188 L 190.613281 -6.949219 L 189.984375 -6.558594 L 189.402344 -6.203125 L 188.871094 -5.867188 L 188.382812 -5.570312 L 187.945312 -5.292969 L 187.546875 -5.050781 L 187.203125 -4.835938 L 186.898438 -4.652344 L 186.648438 -4.492188 L 186.546875 -4.429688 L 186.449219 -4.359375 L 186.261719 -4.226562 L 186.171875 -4.152344 L 186.085938 -4.078125 L 185.996094 -3.996094 L 185.910156 -3.921875 L 185.824219 -3.835938 L 185.746094 -3.753906 L 185.449219 -3.410156 L 185.378906 -3.316406 L 185.3125 -3.222656 L 185.25 -3.125 L 185.1875 -3.03125 L 185.125 -2.933594 L 185.070312 -2.835938 L 184.960938 -2.632812 L 184.910156 -2.53125 L 184.867188 -2.425781 L 184.824219 -2.324219 L 184.78125 -2.210938 L 184.742188 -2.105469 L 184.707031 -1.996094 L 184.667969 -1.882812 L 184.636719 -1.773438 L 184.613281 -1.660156 L 184.582031 -1.550781 L 184.5625 -1.4375 L 184.546875 -1.320312 L 184.527344 -1.210938 L 184.507812 -1.09375 L 184.503906 -0.976562 L 184.488281 -0.859375 L 184.484375 -0.742188 L 184.484375 -0.625 L 184.476562 -0.59375 L 184.476562 -0.5625 L 184.472656 -0.523438 L 184.472656 -0.492188 L 184.464844 -0.464844 L 184.464844 -0.394531 L 184.460938 -0.363281 L 184.460938 -0.332031 L 184.453125 -0.300781 L 184.453125 -0.171875 L 184.445312 -0.136719 L 184.445312 0.183594 L 184.453125 0.214844 L 184.453125 0.347656 L 184.460938 0.375 L 184.460938 0.40625 L 184.464844 0.445312 L 184.464844 0.507812 L 184.472656 0.539062 L 184.472656 0.566406 L 184.476562 0.605469 L 184.476562 0.636719 L 184.484375 0.667969 L 184.535156 0.816406 L 184.582031 0.96875 L 184.636719 1.113281 L 184.761719 1.394531 L 184.835938 1.53125 L 184.902344 1.667969 L 185.066406 1.925781 L 185.152344 2.058594 L 185.242188 2.175781 L 185.335938 2.296875 L 185.433594 2.410156 L 185.535156 2.519531 L 185.640625 2.632812 L 185.75 2.734375 L 185.863281 2.835938 L 185.972656 2.933594 L 186.089844 3.027344 L 186.214844 3.121094 L 186.335938 3.207031 L 186.460938 3.285156 L 186.71875 3.433594 L 186.855469 3.507812 L 187.128906 3.632812 L 187.269531 3.6875 L 187.414062 3.738281 L 187.5625 3.785156 L 187.703125 3.828125 L 187.851562 3.867188 L 188.003906 3.898438 L 188.152344 3.921875 L 188.308594 3.945312 L 188.464844 3.964844 L 188.617188 3.976562 L 188.773438 3.984375 L 188.925781 3.988281 L 189.085938 3.984375 L 249.320312 3.984375 L 249.515625 3.976562 L 249.699219 3.972656 L 249.882812 3.945312 L 250.070312 3.921875 L 250.25 3.890625 L 250.429688 3.847656 L 250.605469 3.804688 L 250.78125 3.75 L 250.945312 3.6875 L 251.113281 3.621094 L 251.28125 3.550781 L 251.441406 3.472656 L 251.597656 3.386719 L 251.75 3.292969 L 251.898438 3.199219 L 252.046875 3.09375 L 252.183594 2.988281 L 252.320312 2.871094 L 252.453125 2.753906 L 252.578125 2.636719 L 252.703125 2.507812 L 252.9375 2.234375 L 253.042969 2.101562 L 253.148438 1.953125 L 253.238281 1.804688 L 253.332031 1.648438 L 253.417969 1.496094 L 253.5 1.335938 L 253.566406 1.167969 L 253.636719 1 L 253.695312 0.832031 L 253.753906 0.660156 L 253.839844 0.300781 L 253.871094 0.125 L 253.894531 -0.0625 L 253.917969 -0.246094 L 253.925781 -0.433594 L 253.929688 -0.625 L 253.925781 -0.816406 L 253.917969 -1 L 253.894531 -1.1875 L 253.871094 -1.371094 L 253.839844 -1.550781 L 253.796875 -1.730469 L 253.753906 -1.902344 L 253.695312 -2.074219 L 253.636719 -2.25 L 253.566406 -2.414062 L 253.5 -2.574219 L 253.417969 -2.734375 L 253.332031 -2.898438 L 253.238281 -3.046875 L 253.148438 -3.191406 L 253.042969 -3.339844 L 252.9375 -3.484375 L 252.820312 -3.621094 L 252.703125 -3.75 L 252.578125 -3.878906 L 252.453125 -3.996094 L 252.320312 -4.121094 L 252.183594 -4.230469 L 252.046875 -4.335938 L 251.898438 -4.441406 L 251.75 -4.535156 L 251.597656 -4.625 L 251.441406 -4.710938 L 251.28125 -4.792969 L 251.113281 -4.859375 L 250.945312 -4.929688 L 250.78125 -4.992188 L 250.605469 -5.046875 L 250.429688 -5.089844 L 250.25 -5.132812 L 250.070312 -5.164062 L 249.882812 -5.1875 L 249.699219 -5.214844 L 249.515625 -5.21875 L 249.320312 -5.226562 L 205.390625 -5.226562 L 207.457031 -6.503906 L 209.46875 -7.75 L 211.441406 -8.972656 L 213.367188 -10.167969 L 215.246094 -11.328125 L 217.074219 -12.464844 L 218.863281 -13.570312 L 220.605469 -14.652344 L 222.296875 -15.695312 L 223.941406 -16.71875 L 225.539062 -17.707031 L 227.089844 -18.671875 L 228.597656 -19.605469 L 230.0625 -20.511719 L 231.476562 -21.382812 L 232.84375 -22.234375 L 234.167969 -23.050781 L 235.4375 -23.839844 L 236.667969 -24.601562 L 237.855469 -25.335938 L 238.992188 -26.039062 L 240.078125 -26.714844 L 241.125 -27.363281 L 242.117188 -27.980469 L 243.070312 -28.566406 L 243.972656 -29.128906 L 244.832031 -29.660156 L 245.640625 -30.160156 L 246.40625 -30.636719 L 247.128906 -31.082031 L 247.796875 -31.496094 L 248.425781 -31.882812 L 249.007812 -32.242188 L 249.539062 -32.574219 L 250.027344 -32.878906 L 250.464844 -33.148438 L 250.859375 -33.390625 L 251.207031 -33.605469 L 251.507812 -33.792969 L 251.761719 -33.953125 L 251.863281 -34.015625 L 252.058594 -34.148438 L 252.246094 -34.296875 L 252.335938 -34.371094 L 252.425781 -34.453125 L 252.511719 -34.53125 L 252.597656 -34.613281 L 252.675781 -34.695312 L 252.757812 -34.78125 L 252.832031 -34.867188 L 252.910156 -34.960938 L 252.980469 -35.050781 L 253.054688 -35.144531 L 253.121094 -35.238281 L 253.183594 -35.335938 L 253.246094 -35.429688 L 253.308594 -35.535156 L 253.417969 -35.730469 L 253.472656 -35.835938 L 253.574219 -36.046875 L 253.617188 -36.15625 L 253.660156 -36.261719 L 253.695312 -36.375 L 253.734375 -36.484375 L 253.765625 -36.597656 L 253.796875 -36.707031 L 253.828125 -36.824219 L 253.851562 -36.9375 L 253.871094 -37.054688 L 253.894531 -37.171875 L 253.929688 -37.523438 L 253.9375 -37.640625 L 253.945312 -37.761719 L 253.945312 -37.882812 L 253.9375 -38.074219 Z M 253.929688 -166.855469 L 253.917969 -167.03125 L 253.894531 -167.210938 L 253.863281 -167.390625 L 253.828125 -167.570312 L 253.78125 -167.753906 L 253.734375 -167.933594 L 253.671875 -168.109375 L 253.605469 -168.285156 L 253.585938 -168.34375 L 253.511719 -168.515625 L 253.429688 -168.6875 L 253.351562 -168.855469 L 253.257812 -169.015625 L 253.160156 -169.175781 L 253.058594 -169.324219 L 252.949219 -169.472656 L 252.835938 -169.613281 L 252.71875 -169.75 L 252.597656 -169.878906 L 252.46875 -170.011719 L 252.203125 -170.246094 L 252.058594 -170.351562 L 251.917969 -170.453125 L 251.769531 -170.554688 L 251.613281 -170.644531 L 251.460938 -170.734375 L 251.304688 -170.8125 L 251.144531 -170.886719 L 250.976562 -170.957031 L 250.816406 -171.015625 L 250.644531 -171.074219 L 250.476562 -171.117188 L 250.304688 -171.160156 L 250.132812 -171.195312 L 249.957031 -171.226562 L 249.78125 -171.246094 L 249.601562 -171.265625 L 249.421875 -171.269531 L 249.242188 -171.269531 L 249.0625 -171.265625 L 248.703125 -171.234375 L 248.519531 -171.207031 L 248.339844 -171.171875 L 248.160156 -171.128906 L 247.980469 -171.078125 L 247.800781 -171.023438 L 247.625 -170.957031 L 247.089844 -170.738281 L 246.410156 -170.453125 L 245.589844 -170.121094 L 244.632812 -169.726562 L 243.550781 -169.28125 L 242.347656 -168.789062 L 241.03125 -168.25 L 239.617188 -167.664062 L 238.109375 -167.046875 L 236.507812 -166.390625 L 234.832031 -165.699219 L 233.085938 -164.980469 L 231.269531 -164.234375 L 229.402344 -163.46875 L 227.488281 -162.683594 L 225.535156 -161.882812 L 223.550781 -161.066406 L 221.535156 -160.238281 L 219.515625 -159.40625 L 215.445312 -157.738281 L 213.425781 -156.902344 L 211.410156 -156.074219 L 209.425781 -155.261719 L 207.472656 -154.457031 L 205.558594 -153.671875 L 203.691406 -152.90625 L 201.875 -152.160156 L 200.128906 -151.441406 L 198.453125 -150.75 L 196.855469 -150.097656 L 195.347656 -149.480469 L 193.929688 -148.890625 L 192.613281 -148.355469 L 191.410156 -147.859375 L 190.328125 -147.417969 L 189.371094 -147.019531 L 188.550781 -146.6875 L 187.871094 -146.402344 L 187.339844 -146.1875 L 187.207031 -146.132812 L 187.085938 -146.074219 L 186.957031 -146.007812 L 186.839844 -145.945312 L 186.714844 -145.878906 L 186.597656 -145.804688 L 186.484375 -145.730469 L 186.375 -145.648438 L 186.261719 -145.570312 L 186.160156 -145.484375 L 186.054688 -145.394531 L 185.953125 -145.304688 L 185.855469 -145.210938 L 185.761719 -145.113281 L 185.671875 -145.011719 L 185.578125 -144.914062 L 185.496094 -144.808594 L 185.410156 -144.703125 L 185.332031 -144.59375 L 185.257812 -144.480469 L 185.183594 -144.371094 L 185.113281 -144.253906 L 185.046875 -144.136719 L 184.921875 -143.902344 L 184.867188 -143.777344 L 184.816406 -143.648438 L 184.769531 -143.523438 L 184.683594 -143.265625 L 184.644531 -143.136719 L 184.609375 -143.007812 L 184.578125 -142.871094 L 184.550781 -142.734375 L 184.535156 -142.597656 L 184.515625 -142.460938 L 184.503906 -142.328125 L 184.488281 -142.183594 L 184.484375 -142.046875 L 184.484375 -141.765625 L 184.496094 -141.628906 L 184.503906 -141.492188 L 184.519531 -141.355469 L 184.539062 -141.222656 L 184.558594 -141.085938 L 184.589844 -140.949219 L 184.652344 -140.691406 L 184.695312 -140.558594 L 184.730469 -140.429688 L 184.78125 -140.308594 L 184.828125 -140.183594 L 184.878906 -140.058594 L 184.933594 -139.9375 L 185.058594 -139.703125 L 185.125 -139.585938 L 185.195312 -139.46875 L 185.269531 -139.355469 L 185.34375 -139.25 L 185.421875 -139.140625 L 185.507812 -139.035156 L 185.597656 -138.9375 L 185.683594 -138.832031 L 185.773438 -138.738281 L 185.867188 -138.640625 L 185.96875 -138.546875 L 186.066406 -138.460938 L 186.277344 -138.289062 L 186.382812 -138.207031 L 186.492188 -138.132812 L 186.609375 -138.050781 L 186.71875 -137.984375 L 186.84375 -137.917969 L 186.960938 -137.847656 L 187.085938 -137.785156 L 187.207031 -137.730469 L 187.339844 -137.675781 L 187.871094 -137.460938 L 188.550781 -137.179688 L 189.371094 -136.847656 L 190.328125 -136.457031 L 191.410156 -136.019531 L 192.613281 -135.53125 L 193.929688 -134.996094 L 195.347656 -134.421875 L 196.855469 -133.808594 L 198.453125 -133.160156 L 200.128906 -132.476562 L 201.875 -131.765625 L 203.691406 -131.03125 L 205.558594 -130.269531 L 207.472656 -129.492188 L 209.425781 -128.703125 L 211.410156 -127.890625 L 213.425781 -127.078125 L 215.445312 -126.253906 L 219.515625 -124.601562 L 221.535156 -123.777344 L 223.550781 -122.964844 L 225.535156 -122.152344 L 227.488281 -121.363281 L 229.402344 -120.585938 L 231.269531 -119.824219 L 233.085938 -119.089844 L 234.832031 -118.378906 L 236.507812 -117.695312 L 238.109375 -117.046875 L 239.617188 -116.433594 L 241.03125 -115.859375 L 242.347656 -115.324219 L 243.550781 -114.835938 L 244.632812 -114.394531 L 245.589844 -114.007812 L 246.410156 -113.671875 L 247.089844 -113.394531 L 247.625 -113.179688 L 247.800781 -113.113281 L 247.976562 -113.054688 L 248.15625 -113 L 248.332031 -112.957031 L 248.511719 -112.921875 L 248.699219 -112.890625 L 248.878906 -112.871094 L 249.054688 -112.851562 L 249.234375 -112.847656 L 249.414062 -112.847656 L 249.59375 -112.851562 L 249.773438 -112.863281 L 249.945312 -112.890625 L 250.125 -112.914062 L 250.296875 -112.945312 L 250.472656 -112.988281 L 250.636719 -113.03125 L 250.804688 -113.085938 L 251.140625 -113.210938 L 251.300781 -113.285156 L 251.453125 -113.359375 L 251.613281 -113.445312 L 251.761719 -113.53125 L 251.910156 -113.628906 L 252.058594 -113.730469 L 252.203125 -113.839844 L 252.335938 -113.953125 L 252.46875 -114.070312 L 252.597656 -114.191406 L 252.71875 -114.320312 L 252.84375 -114.457031 L 252.957031 -114.59375 L 253.066406 -114.742188 L 253.171875 -114.890625 L 253.269531 -115.042969 L 253.363281 -115.207031 L 253.449219 -115.367188 L 253.53125 -115.539062 L 253.605469 -115.710938 L 253.722656 -116.0625 L 253.765625 -116.238281 L 253.808594 -116.410156 L 253.839844 -116.589844 L 253.863281 -116.769531 L 253.882812 -116.941406 L 253.894531 -117.121094 L 253.894531 -117.464844 L 253.882812 -117.644531 L 253.871094 -117.816406 L 253.84375 -117.984375 L 253.820312 -118.15625 L 253.78125 -118.332031 L 253.738281 -118.496094 L 253.695312 -118.664062 L 253.585938 -118.984375 L 253.515625 -119.144531 L 253.441406 -119.300781 L 253.371094 -119.453125 L 253.289062 -119.609375 L 253.195312 -119.757812 L 253.101562 -119.898438 L 253.003906 -120.042969 L 252.898438 -120.175781 L 252.789062 -120.3125 L 252.671875 -120.441406 L 252.554688 -120.566406 L 252.425781 -120.691406 L 252.292969 -120.808594 L 252.15625 -120.917969 L 252.023438 -121.03125 L 251.726562 -121.226562 L 251.570312 -121.320312 L 251.410156 -121.40625 L 251.242188 -121.488281 L 251.078125 -121.5625 L 250.804688 -121.671875 L 250.476562 -121.808594 L 250.105469 -121.957031 L 249.679688 -122.128906 L 249.203125 -122.328125 L 248.6875 -122.535156 L 248.109375 -122.773438 L 247.488281 -123.023438 L 246.8125 -123.304688 L 246.089844 -123.597656 L 245.320312 -123.914062 L 244.496094 -124.246094 L 243.625 -124.605469 L 242.703125 -124.984375 L 241.734375 -125.378906 L 240.710938 -125.792969 L 239.640625 -126.230469 L 238.515625 -126.6875 L 237.347656 -127.167969 L 236.125 -127.664062 L 234.859375 -128.183594 L 233.535156 -128.726562 L 232.164062 -129.28125 L 230.742188 -129.863281 L 229.273438 -130.460938 L 227.757812 -131.085938 L 226.183594 -131.726562 L 224.566406 -132.386719 L 222.894531 -133.066406 L 221.179688 -133.773438 L 219.410156 -134.496094 L 217.589844 -135.234375 L 215.722656 -135.996094 L 213.800781 -136.78125 L 211.835938 -137.582031 L 209.816406 -138.410156 L 207.746094 -139.25 L 205.632812 -140.117188 L 203.464844 -141 L 201.246094 -141.90625 L 203.464844 -142.816406 L 205.632812 -143.703125 L 207.746094 -144.570312 L 209.816406 -145.414062 L 211.835938 -146.242188 L 213.800781 -147.046875 L 215.722656 -147.828125 L 217.589844 -148.597656 L 219.410156 -149.34375 L 221.179688 -150.066406 L 222.894531 -150.769531 L 224.566406 -151.449219 L 226.183594 -152.117188 L 227.757812 -152.757812 L 229.273438 -153.375 L 230.742188 -153.980469 L 232.164062 -154.5625 L 233.535156 -155.125 L 234.859375 -155.660156 L 236.125 -156.179688 L 237.347656 -156.679688 L 238.515625 -157.164062 L 239.640625 -157.621094 L 240.710938 -158.058594 L 241.734375 -158.476562 L 242.703125 -158.875 L 243.625 -159.25 L 244.496094 -159.609375 L 245.320312 -159.949219 L 246.089844 -160.261719 L 246.8125 -160.558594 L 247.488281 -160.832031 L 248.109375 -161.089844 L 248.6875 -161.324219 L 249.203125 -161.535156 L 249.679688 -161.734375 L 250.105469 -161.90625 L 250.476562 -162.054688 L 250.804688 -162.191406 L 251.078125 -162.300781 L 251.25 -162.375 L 251.421875 -162.457031 L 251.582031 -162.542969 L 251.746094 -162.640625 L 251.898438 -162.742188 L 252.046875 -162.839844 L 252.195312 -162.949219 L 252.46875 -163.183594 L 252.597656 -163.308594 L 252.71875 -163.4375 L 252.835938 -163.574219 L 252.949219 -163.710938 L 253.058594 -163.851562 L 253.160156 -163.992188 L 253.25 -164.140625 L 253.34375 -164.296875 L 253.429688 -164.453125 L 253.578125 -164.773438 L 253.640625 -164.933594 L 253.703125 -165.101562 L 253.753906 -165.265625 L 253.800781 -165.441406 L 253.839844 -165.613281 L 253.875 -165.785156 L 253.902344 -165.957031 L 253.917969 -166.136719 L 253.9375 -166.316406 L 253.9375 -166.675781 Z M 253.925781 -95.144531 L 253.917969 -95.328125 L 253.894531 -95.515625 L 253.871094 -95.699219 L 253.839844 -95.878906 L 253.796875 -96.058594 L 253.753906 -96.230469 L 253.695312 -96.402344 L 253.636719 -96.578125 L 253.566406 -96.742188 L 253.5 -96.902344 L 253.417969 -97.066406 L 253.332031 -97.226562 L 253.238281 -97.375 L 253.148438 -97.523438 L 253.042969 -97.671875 L 252.9375 -97.8125 L 252.820312 -97.949219 L 252.703125 -98.078125 L 252.578125 -98.207031 L 252.453125 -98.324219 L 252.320312 -98.449219 L 252.183594 -98.558594 L 252.046875 -98.664062 L 251.898438 -98.769531 L 251.75 -98.863281 L 251.597656 -98.953125 L 251.441406 -99.042969 L 251.28125 -99.121094 L 251.113281 -99.191406 L 250.945312 -99.257812 L 250.78125 -99.320312 L 250.605469 -99.375 L 250.429688 -99.417969 L 250.25 -99.460938 L 250.070312 -99.492188 L 249.882812 -99.515625 L 249.699219 -99.542969 L 249.515625 -99.546875 L 249.320312 -99.554688 L 189.085938 -99.554688 L 188.894531 -99.546875 L 188.710938 -99.542969 L 188.523438 -99.515625 L 188.339844 -99.492188 L 188.160156 -99.460938 L 187.800781 -99.375 L 187.628906 -99.320312 L 187.460938 -99.257812 L 187.296875 -99.191406 L 187.128906 -99.121094 L 186.96875 -99.042969 L 186.8125 -98.953125 L 186.660156 -98.863281 L 186.511719 -98.769531 L 186.367188 -98.664062 L 186.226562 -98.558594 L 186.089844 -98.449219 L 185.960938 -98.324219 L 185.832031 -98.207031 L 185.707031 -98.078125 L 185.589844 -97.949219 L 185.480469 -97.8125 L 185.375 -97.671875 L 185.269531 -97.523438 L 185.167969 -97.375 L 185.082031 -97.226562 L 184.996094 -97.066406 L 184.917969 -96.902344 L 184.84375 -96.742188 L 184.78125 -96.578125 L 184.71875 -96.402344 L 184.664062 -96.230469 L 184.621094 -96.058594 L 184.578125 -95.878906 L 184.546875 -95.699219 L 184.519531 -95.515625 L 184.496094 -95.328125 L 184.488281 -95.144531 L 184.484375 -94.953125 L 184.488281 -94.761719 L 184.496094 -94.574219 L 184.519531 -94.390625 L 184.546875 -94.203125 L 184.578125 -94.027344 L 184.664062 -93.667969 L 184.71875 -93.496094 L 184.84375 -93.160156 L 184.917969 -92.996094 L 184.996094 -92.832031 L 185.082031 -92.679688 L 185.167969 -92.523438 L 185.269531 -92.375 L 185.375 -92.230469 L 185.480469 -92.09375 L 185.589844 -91.957031 L 185.707031 -91.820312 L 185.832031 -91.691406 L 186.089844 -91.457031 L 186.226562 -91.339844 L 186.367188 -91.234375 L 186.511719 -91.128906 L 186.660156 -91.035156 L 186.8125 -90.945312 L 186.96875 -90.855469 L 187.128906 -90.777344 L 187.296875 -90.710938 L 187.460938 -90.640625 L 187.628906 -90.578125 L 187.800781 -90.523438 L 188.160156 -90.4375 L 188.339844 -90.40625 L 188.523438 -90.382812 L 188.710938 -90.355469 L 188.894531 -90.351562 L 189.085938 -90.34375 L 214.597656 -90.34375 L 214.597656 -75.25 L 214.617188 -74.441406 L 214.667969 -73.636719 L 214.746094 -72.847656 L 214.859375 -72.0625 L 215 -71.285156 L 215.171875 -70.523438 L 215.371094 -69.769531 L 215.597656 -69.035156 L 215.859375 -68.308594 L 216.144531 -67.597656 L 216.457031 -66.898438 L 216.792969 -66.210938 L 217.15625 -65.546875 L 217.546875 -64.890625 L 217.960938 -64.253906 L 218.390625 -63.636719 L 218.847656 -63.039062 L 219.332031 -62.457031 L 219.839844 -61.890625 L 220.355469 -61.34375 L 220.902344 -60.828125 L 221.46875 -60.320312 L 222.050781 -59.839844 L 222.648438 -59.382812 L 223.265625 -58.949219 L 223.902344 -58.535156 L 224.558594 -58.144531 L 225.226562 -57.78125 L 225.910156 -57.449219 L 226.609375 -57.132812 L 227.320312 -56.847656 L 228.050781 -56.589844 L 228.785156 -56.359375 L 229.539062 -56.164062 L 230.296875 -55.992188 L 231.078125 -55.847656 L 231.863281 -55.738281 L 232.652344 -55.65625 L 233.457031 -55.609375 L 234.265625 -55.589844 L 235.074219 -55.609375 L 235.878906 -55.65625 L 236.667969 -55.738281 L 237.453125 -55.847656 L 238.230469 -55.992188 L 238.992188 -56.164062 L 239.746094 -56.359375 L 240.480469 -56.589844 L 241.210938 -56.847656 L 241.921875 -57.132812 L 242.617188 -57.449219 L 243.304688 -57.78125 L 243.972656 -58.144531 L 244.625 -58.535156 L 245.261719 -58.949219 L 245.878906 -59.382812 L 246.480469 -59.839844 L 247.0625 -60.320312 L 247.628906 -60.828125 L 248.171875 -61.34375 L 248.691406 -61.890625 L 249.199219 -62.457031 L 249.679688 -63.039062 L 250.136719 -63.636719 L 250.570312 -64.253906 L 250.984375 -64.890625 L 251.375 -65.546875 L 251.738281 -66.210938 L 252.070312 -66.898438 L 252.386719 -67.597656 L 252.671875 -68.308594 L 252.929688 -69.035156 L 253.160156 -69.769531 L 253.355469 -70.523438 L 253.53125 -71.285156 L 253.671875 -72.0625 L 253.78125 -72.847656 L 253.863281 -73.636719 L 253.914062 -74.441406 L 253.929688 -75.25 L 253.929688 -94.953125 Z M 244.644531 -73.984375 L 244.550781 -73.371094 L 244.421875 -72.765625 L 244.261719 -72.179688 L 244.0625 -71.597656 L 243.835938 -71.042969 L 243.582031 -70.5 L 243.292969 -69.972656 L 242.976562 -69.46875 L 242.628906 -68.980469 L 242.261719 -68.515625 L 241.863281 -68.070312 L 241.445312 -67.652344 L 241 -67.257812 L 240.535156 -66.886719 L 240.046875 -66.539062 L 239.542969 -66.226562 L 239.015625 -65.933594 L 238.472656 -65.679688 L 237.910156 -65.453125 L 237.335938 -65.253906 L 236.75 -65.09375 L 236.144531 -64.964844 L 235.523438 -64.871094 L 234.902344 -64.816406 L 234.265625 -64.796875 L 233.628906 -64.816406 L 233.003906 -64.871094 L 232.386719 -64.964844 L 231.78125 -65.09375 L 231.195312 -65.253906 L 230.621094 -65.453125 L 230.058594 -65.679688 L 229.511719 -65.933594 L 228.988281 -66.226562 L 228.480469 -66.539062 L 227.992188 -66.886719 L 227.53125 -67.257812 L 227.085938 -67.652344 L 226.664062 -68.070312 L 226.269531 -68.515625 L 225.898438 -68.980469 L 225.554688 -69.46875 L 225.238281 -69.972656 L 224.949219 -70.5 L 224.695312 -71.042969 L 224.464844 -71.597656 L 224.269531 -72.179688 L 224.105469 -72.765625 L 223.976562 -73.371094 L 223.886719 -73.984375 L 223.828125 -74.613281 L 223.8125 -75.25 L 223.8125 -90.34375 L 244.71875 -90.34375 L 244.71875 -75.25 L 244.699219 -74.613281 Z M 244.644531 -73.984375 " clip-rule="nonzero"/></clipPath><linearGradient x1="250" gradientTransform="matrix(0, 0.617657, -0.617859, 0, 374.914451, -237.81036)" y1="169.350041" x2="250" gradientUnits="userSpaceOnUse" y2="334.670034" id="d59a6cc083"><stop stop-opacity="1" stop-color="rgb(17.298889%, 92.498779%, 100%)" offset="0"/><stop stop-opacity="1" stop-color="rgb(17.611694%, 92.3172%, 100%)" offset="0.00390625"/><stop stop-opacity="1" stop-color="rgb(17.926025%, 92.13562%, 100%)" offset="0.0078125"/><stop stop-opacity="1" stop-color="rgb(18.240356%, 91.952515%, 100%)" offset="0.0117188"/><stop stop-opacity="1" stop-color="rgb(18.554688%, 91.770935%, 100%)" offset="0.015625"/><stop stop-opacity="1" stop-color="rgb(18.867493%, 91.589355%, 100%)" offset="0.0195312"/><stop stop-opacity="1" stop-color="rgb(19.181824%, 91.407776%, 100%)" offset="0.0234375"/><stop stop-opacity="1" stop-color="rgb(19.494629%, 91.22467%, 100%)" offset="0.0273437"/><stop stop-opacity="1" stop-color="rgb(19.80896%, 91.043091%, 100%)" offset="0.03125"/><stop stop-opacity="1" stop-color="rgb(20.121765%, 90.859985%, 100%)" offset="0.0351562"/><stop stop-opacity="1" stop-color="rgb(20.436096%, 90.678406%, 100%)" offset="0.0390625"/><stop stop-opacity="1" stop-color="rgb(20.748901%, 90.496826%, 100%)" offset="0.0429687"/><stop stop-opacity="1" stop-color="rgb(21.063232%, 90.315247%, 100%)" offset="0.046875"/><stop stop-opacity="1" stop-color="rgb(21.376038%, 90.132141%, 100%)" offset="0.0507812"/><stop stop-opacity="1" stop-color="rgb(21.690369%, 89.950562%, 100%)" offset="0.0546875"/><stop stop-opacity="1" stop-color="rgb(22.003174%, 89.768982%, 100%)" offset="0.0585937"/><stop stop-opacity="1" stop-color="rgb(22.317505%, 89.587402%, 100%)" offset="0.0625"/><stop stop-opacity="1" stop-color="rgb(22.63031%, 89.404297%, 100%)" offset="0.0664062"/><stop stop-opacity="1" stop-color="rgb(22.944641%, 89.222717%, 100%)" offset="0.0703125"/><stop stop-opacity="1" stop-color="rgb(23.258972%, 89.039612%, 100%)" offset="0.0742187"/><stop stop-opacity="1" stop-color="rgb(23.573303%, 88.858032%, 100%)" offset="0.078125"/><stop stop-opacity="1" stop-color="rgb(23.886108%, 88.676453%, 100%)" offset="0.0820312"/><stop stop-opacity="1" stop-color="rgb(24.200439%, 88.494873%, 100%)" offset="0.0859375"/><stop stop-opacity="1" stop-color="rgb(24.513245%, 88.311768%, 100%)" offset="0.0898437"/><stop stop-opacity="1" stop-color="rgb(24.827576%, 88.130188%, 100%)" offset="0.09375"/><stop stop-opacity="1" stop-color="rgb(25.140381%, 87.948608%, 100%)" offset="0.0976562"/><stop stop-opacity="1" stop-color="rgb(25.454712%, 87.767029%, 100%)" offset="0.101562"/><stop stop-opacity="1" stop-color="rgb(25.767517%, 87.583923%, 100%)" offset="0.105469"/><stop stop-opacity="1" stop-color="rgb(26.081848%, 87.402344%, 100%)" offset="0.109375"/><stop stop-opacity="1" stop-color="rgb(26.394653%, 87.219238%, 100%)" offset="0.113281"/><stop stop-opacity="1" stop-color="rgb(26.708984%, 87.037659%, 100%)" offset="0.117187"/><stop stop-opacity="1" stop-color="rgb(27.02179%, 86.856079%, 100%)" offset="0.121094"/><stop stop-opacity="1" stop-color="rgb(27.336121%, 86.6745%, 100%)" offset="0.125"/><stop stop-opacity="1" stop-color="rgb(27.650452%, 86.491394%, 100%)" offset="0.128906"/><stop stop-opacity="1" stop-color="rgb(27.964783%, 86.309814%, 100%)" offset="0.132812"/><stop stop-opacity="1" stop-color="rgb(28.277588%, 86.128235%, 100%)" offset="0.136719"/><stop stop-opacity="1" stop-color="rgb(28.591919%, 85.946655%, 100%)" offset="0.140625"/><stop stop-opacity="1" stop-color="rgb(28.904724%, 85.76355%, 100%)" offset="0.144531"/><stop stop-opacity="1" stop-color="rgb(29.219055%, 85.58197%, 100%)" offset="0.148437"/><stop stop-opacity="1" stop-color="rgb(29.53186%, 85.398865%, 100%)" offset="0.152344"/><stop stop-opacity="1" stop-color="rgb(29.846191%, 85.217285%, 100%)" offset="0.15625"/><stop stop-opacity="1" stop-color="rgb(30.158997%, 85.035706%, 100%)" offset="0.160156"/><stop stop-opacity="1" stop-color="rgb(30.473328%, 84.854126%, 100%)" offset="0.164062"/><stop stop-opacity="1" stop-color="rgb(30.786133%, 84.671021%, 100%)" offset="0.167969"/><stop stop-opacity="1" stop-color="rgb(31.100464%, 84.489441%, 100%)" offset="0.171875"/><stop stop-opacity="1" stop-color="rgb(31.413269%, 84.307861%, 100%)" offset="0.175781"/><stop stop-opacity="1" stop-color="rgb(31.7276%, 84.126282%, 100%)" offset="0.179687"/><stop stop-opacity="1" stop-color="rgb(32.041931%, 83.943176%, 100%)" offset="0.183594"/><stop stop-opacity="1" stop-color="rgb(32.356262%, 83.761597%, 100%)" offset="0.1875"/><stop stop-opacity="1" stop-color="rgb(32.669067%, 83.578491%, 100%)" offset="0.191406"/><stop stop-opacity="1" stop-color="rgb(32.983398%, 83.396912%, 100%)" offset="0.195312"/><stop stop-opacity="1" stop-color="rgb(33.296204%, 83.215332%, 100%)" offset="0.199219"/><stop stop-opacity="1" stop-color="rgb(33.610535%, 83.033752%, 100%)" offset="0.203125"/><stop stop-opacity="1" stop-color="rgb(33.92334%, 82.850647%, 100%)" offset="0.207031"/><stop stop-opacity="1" stop-color="rgb(34.237671%, 82.669067%, 100%)" offset="0.210937"/><stop stop-opacity="1" stop-color="rgb(34.550476%, 82.487488%, 100%)" offset="0.214844"/><stop stop-opacity="1" stop-color="rgb(34.864807%, 82.305908%, 100%)" offset="0.21875"/><stop stop-opacity="1" stop-color="rgb(35.177612%, 82.122803%, 100%)" offset="0.222656"/><stop stop-opacity="1" stop-color="rgb(35.491943%, 81.941223%, 100%)" offset="0.226562"/><stop stop-opacity="1" stop-color="rgb(35.804749%, 81.759644%, 100%)" offset="0.230469"/><stop stop-opacity="1" stop-color="rgb(36.11908%, 81.578064%, 100%)" offset="0.234375"/><stop stop-opacity="1" stop-color="rgb(36.431885%, 81.394958%, 100%)" offset="0.238281"/><stop stop-opacity="1" stop-color="rgb(36.746216%, 81.213379%, 100%)" offset="0.242187"/><stop stop-opacity="1" stop-color="rgb(37.060547%, 81.030273%, 100%)" offset="0.246094"/><stop stop-opacity="1" stop-color="rgb(37.374878%, 80.848694%, 100%)" offset="0.25"/><stop stop-opacity="1" stop-color="rgb(37.687683%, 80.667114%, 100%)" offset="0.253906"/><stop stop-opacity="1" stop-color="rgb(38.002014%, 80.485535%, 100%)" offset="0.257812"/><stop stop-opacity="1" stop-color="rgb(38.314819%, 80.302429%, 100%)" offset="0.261719"/><stop stop-opacity="1" stop-color="rgb(38.62915%, 80.12085%, 100%)" offset="0.265625"/><stop stop-opacity="1" stop-color="rgb(38.941956%, 79.93927%, 100%)" offset="0.269531"/><stop stop-opacity="1" stop-color="rgb(39.256287%, 79.75769%, 100%)" offset="0.273437"/><stop stop-opacity="1" stop-color="rgb(39.569092%, 79.574585%, 100%)" offset="0.277344"/><stop stop-opacity="1" stop-color="rgb(39.883423%, 79.393005%, 100%)" offset="0.28125"/><stop stop-opacity="1" stop-color="rgb(40.196228%, 79.2099%, 100%)" offset="0.285156"/><stop stop-opacity="1" stop-color="rgb(40.510559%, 79.02832%, 100%)" offset="0.289062"/><stop stop-opacity="1" stop-color="rgb(40.823364%, 78.846741%, 100%)" offset="0.292969"/><stop stop-opacity="1" stop-color="rgb(41.137695%, 78.665161%, 100%)" offset="0.296875"/><stop stop-opacity="1" stop-color="rgb(41.452026%, 78.482056%, 100%)" offset="0.300781"/><stop stop-opacity="1" stop-color="rgb(41.766357%, 78.300476%, 100%)" offset="0.304687"/><stop stop-opacity="1" stop-color="rgb(42.079163%, 78.118896%, 100%)" offset="0.308594"/><stop stop-opacity="1" stop-color="rgb(42.393494%, 77.937317%, 100%)" offset="0.3125"/><stop stop-opacity="1" stop-color="rgb(42.706299%, 77.754211%, 100%)" offset="0.316406"/><stop stop-opacity="1" stop-color="rgb(43.02063%, 77.572632%, 100%)" offset="0.320312"/><stop stop-opacity="1" stop-color="rgb(43.333435%, 77.389526%, 100%)" offset="0.324219"/><stop stop-opacity="1" stop-color="rgb(43.647766%, 77.207947%, 100%)" offset="0.328125"/><stop stop-opacity="1" stop-color="rgb(43.960571%, 77.026367%, 100%)" offset="0.332031"/><stop stop-opacity="1" stop-color="rgb(44.274902%, 76.844788%, 100%)" offset="0.335937"/><stop stop-opacity="1" stop-color="rgb(44.587708%, 76.661682%, 100%)" offset="0.339844"/><stop stop-opacity="1" stop-color="rgb(44.902039%, 76.480103%, 100%)" offset="0.34375"/><stop stop-opacity="1" stop-color="rgb(45.214844%, 76.298523%, 100%)" offset="0.347656"/><stop stop-opacity="1" stop-color="rgb(45.529175%, 76.116943%, 100%)" offset="0.351562"/><stop stop-opacity="1" stop-color="rgb(45.84198%, 75.933838%, 100%)" offset="0.355469"/><stop stop-opacity="1" stop-color="rgb(46.156311%, 75.752258%, 100%)" offset="0.359375"/><stop stop-opacity="1" stop-color="rgb(46.470642%, 75.569153%, 100%)" offset="0.363281"/><stop stop-opacity="1" stop-color="rgb(46.784973%, 75.387573%, 100%)" offset="0.367187"/><stop stop-opacity="1" stop-color="rgb(47.097778%, 75.205994%, 100%)" offset="0.371094"/><stop stop-opacity="1" stop-color="rgb(47.412109%, 75.024414%, 100%)" offset="0.375"/><stop stop-opacity="1" stop-color="rgb(47.724915%, 74.841309%, 100%)" offset="0.378906"/><stop stop-opacity="1" stop-color="rgb(48.039246%, 74.659729%, 100%)" offset="0.382812"/><stop stop-opacity="1" stop-color="rgb(48.352051%, 74.478149%, 100%)" offset="0.386719"/><stop stop-opacity="1" stop-color="rgb(48.666382%, 74.29657%, 100%)" offset="0.390625"/><stop stop-opacity="1" stop-color="rgb(48.979187%, 74.113464%, 100%)" offset="0.394531"/><stop stop-opacity="1" stop-color="rgb(49.293518%, 73.931885%, 100%)" offset="0.398437"/><stop stop-opacity="1" stop-color="rgb(49.606323%, 73.750305%, 100%)" offset="0.402344"/><stop stop-opacity="1" stop-color="rgb(49.920654%, 73.568726%, 100%)" offset="0.40625"/><stop stop-opacity="1" stop-color="rgb(50.233459%, 73.38562%, 100%)" offset="0.410156"/><stop stop-opacity="1" stop-color="rgb(50.547791%, 73.204041%, 100%)" offset="0.414062"/><stop stop-opacity="1" stop-color="rgb(50.862122%, 73.020935%, 100%)" offset="0.417969"/><stop stop-opacity="1" stop-color="rgb(51.176453%, 72.839355%, 100%)" offset="0.421875"/><stop stop-opacity="1" stop-color="rgb(51.489258%, 72.657776%, 100%)" offset="0.425781"/><stop stop-opacity="1" stop-color="rgb(51.803589%, 72.476196%, 100%)" offset="0.429687"/><stop stop-opacity="1" stop-color="rgb(52.116394%, 72.293091%, 100%)" offset="0.433594"/><stop stop-opacity="1" stop-color="rgb(52.430725%, 72.111511%, 100%)" offset="0.4375"/><stop stop-opacity="1" stop-color="rgb(52.74353%, 71.929932%, 100%)" offset="0.441406"/><stop stop-opacity="1" stop-color="rgb(53.057861%, 71.748352%, 100%)" offset="0.445312"/><stop stop-opacity="1" stop-color="rgb(53.370667%, 71.565247%, 100%)" offset="0.449219"/><stop stop-opacity="1" stop-color="rgb(53.684998%, 71.383667%, 100%)" offset="0.453125"/><stop stop-opacity="1" stop-color="rgb(53.997803%, 71.200562%, 100%)" offset="0.457031"/><stop stop-opacity="1" stop-color="rgb(54.312134%, 71.018982%, 100%)" offset="0.460937"/><stop stop-opacity="1" stop-color="rgb(54.624939%, 70.837402%, 100%)" offset="0.464844"/><stop stop-opacity="1" stop-color="rgb(54.93927%, 70.655823%, 100%)" offset="0.46875"/><stop stop-opacity="1" stop-color="rgb(55.253601%, 70.472717%, 100%)" offset="0.472656"/><stop stop-opacity="1" stop-color="rgb(55.567932%, 70.291138%, 100%)" offset="0.476562"/><stop stop-opacity="1" stop-color="rgb(55.880737%, 70.109558%, 100%)" offset="0.480469"/><stop stop-opacity="1" stop-color="rgb(56.195068%, 69.927979%, 100%)" offset="0.484375"/><stop stop-opacity="1" stop-color="rgb(56.507874%, 69.744873%, 100%)" offset="0.488281"/><stop stop-opacity="1" stop-color="rgb(56.822205%, 69.563293%, 100%)" offset="0.492187"/><stop stop-opacity="1" stop-color="rgb(57.13501%, 69.380188%, 100%)" offset="0.496094"/><stop stop-opacity="1" stop-color="rgb(57.449341%, 69.198608%, 100%)" offset="0.5"/><stop stop-opacity="1" stop-color="rgb(57.762146%, 69.017029%, 100%)" offset="0.503906"/><stop stop-opacity="1" stop-color="rgb(58.076477%, 68.835449%, 100%)" offset="0.507812"/><stop stop-opacity="1" stop-color="rgb(58.389282%, 68.652344%, 100%)" offset="0.511719"/><stop stop-opacity="1" stop-color="rgb(58.703613%, 68.470764%, 100%)" offset="0.515625"/><stop stop-opacity="1" stop-color="rgb(59.016418%, 68.289185%, 100%)" offset="0.519531"/><stop stop-opacity="1" stop-color="rgb(59.33075%, 68.107605%, 100%)" offset="0.523438"/><stop stop-opacity="1" stop-color="rgb(59.643555%, 67.9245%, 100%)" offset="0.527344"/><stop stop-opacity="1" stop-color="rgb(59.957886%, 67.74292%, 100%)" offset="0.53125"/><stop stop-opacity="1" stop-color="rgb(60.272217%, 67.559814%, 100%)" offset="0.535156"/><stop stop-opacity="1" stop-color="rgb(60.586548%, 67.378235%, 100%)" offset="0.539062"/><stop stop-opacity="1" stop-color="rgb(60.899353%, 67.196655%, 100%)" offset="0.542969"/><stop stop-opacity="1" stop-color="rgb(61.213684%, 67.015076%, 100%)" offset="0.546875"/><stop stop-opacity="1" stop-color="rgb(61.526489%, 66.83197%, 100%)" offset="0.550781"/><stop stop-opacity="1" stop-color="rgb(61.84082%, 66.650391%, 100%)" offset="0.554688"/><stop stop-opacity="1" stop-color="rgb(62.153625%, 66.468811%, 100%)" offset="0.558594"/><stop stop-opacity="1" stop-color="rgb(62.467957%, 66.287231%, 100%)" offset="0.5625"/><stop stop-opacity="1" stop-color="rgb(62.780762%, 66.104126%, 100%)" offset="0.566406"/><stop stop-opacity="1" stop-color="rgb(63.095093%, 65.922546%, 100%)" offset="0.570312"/><stop stop-opacity="1" stop-color="rgb(63.407898%, 65.739441%, 100%)" offset="0.574219"/><stop stop-opacity="1" stop-color="rgb(63.722229%, 65.557861%, 100%)" offset="0.578125"/><stop stop-opacity="1" stop-color="rgb(64.035034%, 65.376282%, 100%)" offset="0.582031"/><stop stop-opacity="1" stop-color="rgb(64.349365%, 65.194702%, 100%)" offset="0.585938"/><stop stop-opacity="1" stop-color="rgb(64.663696%, 65.011597%, 100%)" offset="0.589844"/><stop stop-opacity="1" stop-color="rgb(64.978027%, 64.830017%, 100%)" offset="0.59375"/><stop stop-opacity="1" stop-color="rgb(65.290833%, 64.648438%, 100%)" offset="0.597656"/><stop stop-opacity="1" stop-color="rgb(65.605164%, 64.466858%, 100%)" offset="0.601562"/><stop stop-opacity="1" stop-color="rgb(65.917969%, 64.283752%, 100%)" offset="0.605469"/><stop stop-opacity="1" stop-color="rgb(66.2323%, 64.102173%, 100%)" offset="0.609375"/><stop stop-opacity="1" stop-color="rgb(66.545105%, 63.920593%, 100%)" offset="0.613281"/><stop stop-opacity="1" stop-color="rgb(66.859436%, 63.739014%, 100%)" offset="0.617188"/><stop stop-opacity="1" stop-color="rgb(67.172241%, 63.555908%, 100%)" offset="0.621094"/><stop stop-opacity="1" stop-color="rgb(67.486572%, 63.374329%, 100%)" offset="0.625"/><stop stop-opacity="1" stop-color="rgb(67.799377%, 63.191223%, 100%)" offset="0.628906"/><stop stop-opacity="1" stop-color="rgb(68.113708%, 63.009644%, 100%)" offset="0.632812"/><stop stop-opacity="1" stop-color="rgb(68.426514%, 62.828064%, 100%)" offset="0.636719"/><stop stop-opacity="1" stop-color="rgb(68.740845%, 62.646484%, 100%)" offset="0.640625"/><stop stop-opacity="1" stop-color="rgb(69.055176%, 62.463379%, 100%)" offset="0.644531"/><stop stop-opacity="1" stop-color="rgb(69.369507%, 62.281799%, 100%)" offset="0.648438"/><stop stop-opacity="1" stop-color="rgb(69.682312%, 62.10022%, 100%)" offset="0.652344"/><stop stop-opacity="1" stop-color="rgb(69.996643%, 61.91864%, 100%)" offset="0.65625"/><stop stop-opacity="1" stop-color="rgb(70.309448%, 61.735535%, 100%)" offset="0.660156"/><stop stop-opacity="1" stop-color="rgb(70.623779%, 61.553955%, 100%)" offset="0.664062"/><stop stop-opacity="1" stop-color="rgb(70.936584%, 61.37085%, 100%)" offset="0.667969"/><stop stop-opacity="1" stop-color="rgb(71.250916%, 61.18927%, 100%)" offset="0.671875"/><stop stop-opacity="1" stop-color="rgb(71.563721%, 61.00769%, 100%)" offset="0.675781"/><stop stop-opacity="1" stop-color="rgb(71.878052%, 60.826111%, 100%)" offset="0.679688"/><stop stop-opacity="1" stop-color="rgb(72.190857%, 60.643005%, 100%)" offset="0.683594"/><stop stop-opacity="1" stop-color="rgb(72.505188%, 60.461426%, 100%)" offset="0.6875"/><stop stop-opacity="1" stop-color="rgb(72.817993%, 60.279846%, 100%)" offset="0.691406"/><stop stop-opacity="1" stop-color="rgb(73.132324%, 60.098267%, 100%)" offset="0.695312"/><stop stop-opacity="1" stop-color="rgb(73.445129%, 59.915161%, 100%)" offset="0.699219"/><stop stop-opacity="1" stop-color="rgb(73.75946%, 59.733582%, 100%)" offset="0.703125"/><stop stop-opacity="1" stop-color="rgb(74.073792%, 59.550476%, 100%)" offset="0.707031"/><stop stop-opacity="1" stop-color="rgb(74.388123%, 59.368896%, 100%)" offset="0.710938"/><stop stop-opacity="1" stop-color="rgb(74.700928%, 59.187317%, 100%)" offset="0.714844"/><stop stop-opacity="1" stop-color="rgb(75.015259%, 59.005737%, 100%)" offset="0.71875"/><stop stop-opacity="1" stop-color="rgb(75.328064%, 58.822632%, 100%)" offset="0.722656"/><stop stop-opacity="1" stop-color="rgb(75.642395%, 58.641052%, 100%)" offset="0.726562"/><stop stop-opacity="1" stop-color="rgb(75.9552%, 58.459473%, 100%)" offset="0.730469"/><stop stop-opacity="1" stop-color="rgb(76.269531%, 58.277893%, 100%)" offset="0.734375"/><stop stop-opacity="1" stop-color="rgb(76.582336%, 58.094788%, 100%)" offset="0.738281"/><stop stop-opacity="1" stop-color="rgb(76.896667%, 57.913208%, 100%)" offset="0.742188"/><stop stop-opacity="1" stop-color="rgb(77.209473%, 57.730103%, 100%)" offset="0.746094"/><stop stop-opacity="1" stop-color="rgb(77.523804%, 57.548523%, 100%)" offset="0.75"/><stop stop-opacity="1" stop-color="rgb(77.836609%, 57.366943%, 100%)" offset="0.753906"/><stop stop-opacity="1" stop-color="rgb(78.15094%, 57.185364%, 100%)" offset="0.757812"/><stop stop-opacity="1" stop-color="rgb(78.465271%, 57.002258%, 100%)" offset="0.761719"/><stop stop-opacity="1" stop-color="rgb(78.779602%, 56.820679%, 100%)" offset="0.765625"/><stop stop-opacity="1" stop-color="rgb(79.092407%, 56.639099%, 100%)" offset="0.769531"/><stop stop-opacity="1" stop-color="rgb(79.406738%, 56.45752%, 100%)" offset="0.773438"/><stop stop-opacity="1" stop-color="rgb(79.719543%, 56.274414%, 100%)" offset="0.777344"/><stop stop-opacity="1" stop-color="rgb(80.033875%, 56.092834%, 100%)" offset="0.78125"/><stop stop-opacity="1" stop-color="rgb(80.34668%, 55.911255%, 100%)" offset="0.785156"/><stop stop-opacity="1" stop-color="rgb(80.661011%, 55.729675%, 100%)" offset="0.789062"/><stop stop-opacity="1" stop-color="rgb(80.973816%, 55.54657%, 100%)" offset="0.792969"/><stop stop-opacity="1" stop-color="rgb(81.288147%, 55.36499%, 100%)" offset="0.796875"/><stop stop-opacity="1" stop-color="rgb(81.600952%, 55.181885%, 100%)" offset="0.800781"/><stop stop-opacity="1" stop-color="rgb(81.915283%, 55.000305%, 100%)" offset="0.804688"/><stop stop-opacity="1" stop-color="rgb(82.228088%, 54.818726%, 100%)" offset="0.808594"/><stop stop-opacity="1" stop-color="rgb(82.542419%, 54.637146%, 100%)" offset="0.8125"/><stop stop-opacity="1" stop-color="rgb(82.85675%, 54.454041%, 100%)" offset="0.816406"/><stop stop-opacity="1" stop-color="rgb(83.171082%, 54.272461%, 100%)" offset="0.820312"/><stop stop-opacity="1" stop-color="rgb(83.483887%, 54.090881%, 100%)" offset="0.824219"/><stop stop-opacity="1" stop-color="rgb(83.798218%, 53.909302%, 100%)" offset="0.828125"/><stop stop-opacity="1" stop-color="rgb(84.111023%, 53.726196%, 100%)" offset="0.832031"/><stop stop-opacity="1" stop-color="rgb(84.425354%, 53.544617%, 100%)" offset="0.835938"/><stop stop-opacity="1" stop-color="rgb(84.738159%, 53.361511%, 100%)" offset="0.839844"/><stop stop-opacity="1" stop-color="rgb(85.05249%, 53.179932%, 100%)" offset="0.84375"/><stop stop-opacity="1" stop-color="rgb(85.365295%, 52.998352%, 100%)" offset="0.847656"/><stop stop-opacity="1" stop-color="rgb(85.679626%, 52.816772%, 100%)" offset="0.851562"/><stop stop-opacity="1" stop-color="rgb(85.992432%, 52.633667%, 100%)" offset="0.855469"/><stop stop-opacity="1" stop-color="rgb(86.306763%, 52.452087%, 100%)" offset="0.859375"/><stop stop-opacity="1" stop-color="rgb(86.619568%, 52.270508%, 100%)" offset="0.863281"/><stop stop-opacity="1" stop-color="rgb(86.933899%, 52.088928%, 100%)" offset="0.867188"/><stop stop-opacity="1" stop-color="rgb(87.246704%, 51.905823%, 100%)" offset="0.871094"/><stop stop-opacity="1" stop-color="rgb(87.561035%, 51.724243%, 100%)" offset="0.875"/><stop stop-opacity="1" stop-color="rgb(87.875366%, 51.541138%, 100%)" offset="0.878906"/><stop stop-opacity="1" stop-color="rgb(88.189697%, 51.359558%, 100%)" offset="0.882812"/><stop stop-opacity="1" stop-color="rgb(88.502502%, 51.177979%, 100%)" offset="0.886719"/><stop stop-opacity="1" stop-color="rgb(88.816833%, 50.996399%, 100%)" offset="0.890625"/><stop stop-opacity="1" stop-color="rgb(89.129639%, 50.813293%, 100%)" offset="0.894531"/><stop stop-opacity="1" stop-color="rgb(89.44397%, 50.631714%, 100%)" offset="0.898438"/><stop stop-opacity="1" stop-color="rgb(89.756775%, 50.450134%, 100%)" offset="0.902344"/><stop stop-opacity="1" stop-color="rgb(90.071106%, 50.268555%, 100%)" offset="0.90625"/><stop stop-opacity="1" stop-color="rgb(90.383911%, 50.085449%, 100%)" offset="0.910156"/><stop stop-opacity="1" stop-color="rgb(90.698242%, 49.90387%, 100%)" offset="0.914062"/><stop stop-opacity="1" stop-color="rgb(91.011047%, 49.720764%, 100%)" offset="0.917969"/><stop stop-opacity="1" stop-color="rgb(91.325378%, 49.539185%, 100%)" offset="0.921875"/><stop stop-opacity="1" stop-color="rgb(91.638184%, 49.357605%, 100%)" offset="0.925781"/><stop stop-opacity="1" stop-color="rgb(91.952515%, 49.176025%, 100%)" offset="0.929688"/><stop stop-opacity="1" stop-color="rgb(92.266846%, 48.99292%, 100%)" offset="0.933594"/><stop stop-opacity="1" stop-color="rgb(92.581177%, 48.81134%, 100%)" offset="0.9375"/><stop stop-opacity="1" stop-color="rgb(92.893982%, 48.629761%, 100%)" offset="0.941406"/><stop stop-opacity="1" stop-color="rgb(93.208313%, 48.448181%, 100%)" offset="0.945312"/><stop stop-opacity="1" stop-color="rgb(93.521118%, 48.265076%, 100%)" offset="0.949219"/><stop stop-opacity="1" stop-color="rgb(93.835449%, 48.083496%, 100%)" offset="0.953125"/><stop stop-opacity="1" stop-color="rgb(94.148254%, 47.900391%, 100%)" offset="0.957031"/><stop stop-opacity="1" stop-color="rgb(94.462585%, 47.718811%, 100%)" offset="0.960938"/><stop stop-opacity="1" stop-color="rgb(94.775391%, 47.537231%, 100%)" offset="0.964844"/><stop stop-opacity="1" stop-color="rgb(95.089722%, 47.355652%, 100%)" offset="0.96875"/><stop stop-opacity="1" stop-color="rgb(95.402527%, 47.172546%, 100%)" offset="0.972656"/><stop stop-opacity="1" stop-color="rgb(95.716858%, 46.990967%, 100%)" offset="0.976562"/><stop stop-opacity="1" stop-color="rgb(96.029663%, 46.809387%, 100%)" offset="0.980469"/><stop stop-opacity="1" stop-color="rgb(96.343994%, 46.627808%, 100%)" offset="0.984375"/><stop stop-opacity="1" stop-color="rgb(96.658325%, 46.444702%, 100%)" offset="0.988281"/><stop stop-opacity="1" stop-color="rgb(96.972656%, 46.263123%, 100%)" offset="0.992188"/><stop stop-opacity="1" stop-color="rgb(97.285461%, 46.081543%, 100%)" offset="0.996094"/><stop stop-opacity="1" stop-color="rgb(97.599792%, 45.899963%, 100%)" offset="1"/></linearGradient></defs><g clip-path="url(#e9c4edebb7)"><g clip-path="url(#fd42d0b3ce)"><g clip-path="url(#b936c12edd)"><path fill="url(#d59a6cc083)" d="M 270.28125 9.140625 L 168.136719 9.140625 L 168.136719 64.839844 L 270.28125 64.839844 Z M 270.28125 9.140625 " fill-rule="nonzero"/></g></g></g><g fill="#ffffff" fill-opacity="1"><g transform="translate(11.614665, 55.318979)"><g><path d="M 1.84375 -14 C 1.84375 -16.394531 2.253906 -18.484375 3.078125 -20.265625 C 3.898438 -22.054688 5 -23.550781 6.375 -24.75 C 7.75 -25.945312 9.28125 -26.84375 10.96875 -27.4375 C 12.664062 -28.039062 14.40625 -28.34375 16.1875 -28.34375 C 18.082031 -28.34375 19.929688 -27.992188 21.734375 -27.296875 C 23.535156 -26.609375 25.09375 -25.535156 26.40625 -24.078125 C 27.726562 -22.628906 28.613281 -20.75 29.0625 -18.4375 L 22.03125 -18.4375 C 21.445312 -19.632812 20.679688 -20.492188 19.734375 -21.015625 C 18.785156 -21.535156 17.601562 -21.796875 16.1875 -21.796875 C 14.695312 -21.796875 13.429688 -21.441406 12.390625 -20.734375 C 11.347656 -20.023438 10.5625 -19.082031 10.03125 -17.90625 C 9.5 -16.738281 9.234375 -15.4375 9.234375 -14 C 9.234375 -11.675781 9.863281 -9.8125 11.125 -8.40625 C 12.394531 -7.007812 14.082031 -6.3125 16.1875 -6.3125 C 17.632812 -6.3125 18.835938 -6.550781 19.796875 -7.03125 C 20.753906 -7.507812 21.550781 -8.414062 22.1875 -9.75 L 16.234375 -9.75 L 16.234375 -15.953125 L 29.46875 -15.953125 C 29.550781 -14.566406 29.554688 -13.191406 29.484375 -11.828125 C 29.421875 -10.472656 29.148438 -9.113281 28.671875 -7.75 C 28.003906 -5.8125 27.015625 -4.25 25.703125 -3.0625 C 24.398438 -1.875 22.921875 -1.015625 21.265625 -0.484375 C 19.617188 0.046875 17.925781 0.3125 16.1875 0.3125 C 14.40625 0.3125 12.664062 0.015625 10.96875 -0.578125 C 9.28125 -1.179688 7.75 -2.070312 6.375 -3.25 C 5 -4.4375 3.898438 -5.921875 3.078125 -7.703125 C 2.253906 -9.492188 1.84375 -11.59375 1.84375 -14 Z M 1.84375 -14 "/></g></g></g><g fill="#ffffff" fill-opacity="1"><g transform="translate(43.199257, 55.318979)"><g><path d="M 14.390625 -6.03125 C 15.085938 -6.03125 15.757812 -6.15625 16.40625 -6.40625 C 17.0625 -6.664062 17.59375 -7.046875 18 -7.546875 C 18.414062 -8.054688 18.625 -8.6875 18.625 -9.4375 L 18.625 -27.984375 C 19.78125 -27.984375 20.941406 -27.984375 22.109375 -27.984375 C 23.285156 -27.984375 24.429688 -27.984375 25.546875 -27.984375 L 25.546875 -9.3125 C 25.546875 -7.769531 25.238281 -6.398438 24.625 -5.203125 C 24.007812 -4.003906 23.175781 -2.988281 22.125 -2.15625 C 21.070312 -1.332031 19.878906 -0.695312 18.546875 -0.25 C 17.210938 0.1875 15.828125 0.40625 14.390625 0.40625 C 12.953125 0.40625 11.570312 0.1875 10.25 -0.25 C 8.9375 -0.695312 7.753906 -1.332031 6.703125 -2.15625 C 5.648438 -2.988281 4.816406 -4.003906 4.203125 -5.203125 C 3.585938 -6.398438 3.28125 -7.769531 3.28125 -9.3125 L 3.28125 -27.984375 C 4.394531 -27.984375 5.53125 -27.984375 6.6875 -27.984375 C 7.851562 -27.984375 8.992188 -27.984375 10.109375 -27.984375 L 10.109375 -9.4375 C 10.109375 -8.6875 10.320312 -8.054688 10.75 -7.546875 C 11.175781 -7.046875 11.71875 -6.664062 12.375 -6.40625 C 13.03125 -6.15625 13.703125 -6.03125 14.390625 -6.03125 Z M 14.390625 -6.03125 "/></g></g></g><g fill="#ffffff" fill-opacity="1"><g transform="translate(72.065173, 55.318979)"><g><path d="M 21.359375 0 L 19.71875 -3.515625 L 8.671875 -3.515625 L 7.03125 0 L 0.046875 0 L 0.046875 -1.046875 L 12.640625 -28.34375 L 15.71875 -28.34375 L 28.34375 -1.046875 L 28.34375 0 Z M 17.359375 -9.671875 L 14.15625 -17.03125 L 11.03125 -9.671875 Z M 17.359375 -9.671875 "/></g></g></g><g fill="#ffffff" fill-opacity="1"><g transform="translate(100.531282, 55.318979)"><g><path d="M 21.71875 -9.921875 L 27.1875 -1.046875 L 27.1875 0 L 19.1875 0 L 14.390625 -8.234375 L 10.671875 -8.234375 L 10.671875 0 C 9.472656 0 8.273438 0 7.078125 0 C 5.878906 0 4.691406 0 3.515625 0 C 3.515625 -4.664062 3.515625 -9.328125 3.515625 -13.984375 C 3.515625 -18.648438 3.515625 -23.316406 3.515625 -27.984375 C 5.546875 -27.984375 7.59375 -27.984375 9.65625 -27.984375 C 11.71875 -27.984375 13.765625 -27.984375 15.796875 -27.984375 C 17.628906 -27.984375 19.210938 -27.648438 20.546875 -26.984375 C 21.878906 -26.316406 22.957031 -25.4375 23.78125 -24.34375 C 24.613281 -23.257812 25.195312 -22.054688 25.53125 -20.734375 C 25.863281 -19.410156 25.941406 -18.066406 25.765625 -16.703125 C 25.597656 -15.347656 25.171875 -14.078125 24.484375 -12.890625 C 23.804688 -11.703125 22.882812 -10.710938 21.71875 -9.921875 Z M 15.796875 -14.671875 C 16.566406 -14.671875 17.191406 -14.90625 17.671875 -15.375 C 18.148438 -15.84375 18.472656 -16.414062 18.640625 -17.09375 C 18.816406 -17.769531 18.828125 -18.453125 18.671875 -19.140625 C 18.515625 -19.835938 18.203125 -20.421875 17.734375 -20.890625 C 17.265625 -21.359375 16.617188 -21.59375 15.796875 -21.59375 C 14.960938 -21.613281 14.113281 -21.617188 13.25 -21.609375 C 12.382812 -21.597656 11.523438 -21.59375 10.671875 -21.59375 C 10.671875 -20.445312 10.671875 -19.285156 10.671875 -18.109375 C 10.671875 -16.941406 10.671875 -15.796875 10.671875 -14.671875 Z M 15.796875 -14.671875 "/></g></g></g><g fill="#ffffff" fill-opacity="1"><g transform="translate(128.47765, 55.318979)"><g><path d="M 14.109375 -27.984375 C 16.398438 -27.984375 18.398438 -27.582031 20.109375 -26.78125 C 21.816406 -25.988281 23.234375 -24.929688 24.359375 -23.609375 C 25.492188 -22.285156 26.347656 -20.789062 26.921875 -19.125 C 27.503906 -17.46875 27.796875 -15.757812 27.796875 -14 C 27.796875 -12.238281 27.503906 -10.523438 26.921875 -8.859375 C 26.347656 -7.191406 25.492188 -5.695312 24.359375 -4.375 C 23.234375 -3.0625 21.816406 -2.003906 20.109375 -1.203125 C 18.398438 -0.398438 16.398438 0 14.109375 0 L 3.5625 0 L 3.5625 -27.984375 Z M 10.71875 -21.46875 L 10.71875 -6.515625 L 14.109375 -6.515625 C 15.609375 -6.515625 16.847656 -6.875 17.828125 -7.59375 C 18.816406 -8.3125 19.554688 -9.238281 20.046875 -10.375 C 20.546875 -11.507812 20.796875 -12.710938 20.796875 -13.984375 C 20.796875 -15.265625 20.546875 -16.472656 20.046875 -17.609375 C 19.554688 -18.742188 18.816406 -19.671875 17.828125 -20.390625 C 16.847656 -21.109375 15.609375 -21.46875 14.109375 -21.46875 Z M 10.71875 -21.46875 "/></g></g></g><g fill="#000000" fill-opacity="1"><g transform="translate(183.230835, 49.020028)"><g><path d="M 6.046875 -22.734375 L 11.359375 -9.875 L 11.53125 -9.875 L 16.71875 -22.734375 L 22.3125 -22.734375 L 22.3125 -21.84375 L 12.65625 0.265625 L 10.1875 0.265625 L 0.453125 -21.84375 L 0.453125 -22.734375 Z M 6.046875 -22.734375 "/></g></g></g><g fill="#000000" fill-opacity="1"><g transform="translate(206.018044, 49.020028)"><g><path d="M 8.703125 0 C 7.722656 0 6.742188 0 5.765625 0 C 4.796875 0 3.835938 0 2.890625 0 C 2.890625 -3.789062 2.890625 -7.578125 2.890625 -11.359375 C 2.890625 -15.148438 2.890625 -18.941406 2.890625 -22.734375 C 4.535156 -22.734375 6.195312 -22.734375 7.875 -22.734375 C 9.550781 -22.734375 11.222656 -22.734375 12.890625 -22.734375 C 14.453125 -22.734375 15.785156 -22.421875 16.890625 -21.796875 C 17.992188 -21.179688 18.878906 -20.367188 19.546875 -19.359375 C 20.210938 -18.359375 20.65625 -17.253906 20.875 -16.046875 C 21.09375 -14.847656 21.09375 -13.648438 20.875 -12.453125 C 20.65625 -11.253906 20.210938 -10.148438 19.546875 -9.140625 C 18.878906 -8.128906 17.992188 -7.320312 16.890625 -6.71875 C 15.785156 -6.113281 14.453125 -5.8125 12.890625 -5.8125 L 8.703125 -5.8125 Z M 12.859375 -11.046875 C 13.484375 -11.046875 13.992188 -11.257812 14.390625 -11.6875 C 14.796875 -12.125 15.066406 -12.664062 15.203125 -13.3125 C 15.347656 -13.957031 15.359375 -14.597656 15.234375 -15.234375 C 15.117188 -15.878906 14.859375 -16.421875 14.453125 -16.859375 C 14.054688 -17.304688 13.523438 -17.53125 12.859375 -17.53125 C 12.179688 -17.550781 11.484375 -17.554688 10.765625 -17.546875 C 10.054688 -17.535156 9.367188 -17.53125 8.703125 -17.53125 C 8.703125 -16.925781 8.703125 -16.234375 8.703125 -15.453125 C 8.703125 -14.671875 8.703125 -13.894531 8.703125 -13.125 C 8.703125 -12.363281 8.703125 -11.671875 8.703125 -11.046875 Z M 12.859375 -11.046875 "/></g></g></g><g fill="#000000" fill-opacity="1"><g transform="translate(228.545567, 49.020028)"><g><path d="M 20.359375 0.03125 L 8.890625 -11.171875 L 8.890625 0 C 7.898438 0 6.898438 0 5.890625 0 C 4.890625 0 3.890625 0 2.890625 0 L 2.890625 -22.828125 L 5 -22.828125 L 16.5 -11.59375 L 16.5 -22.734375 C 17.488281 -22.734375 18.472656 -22.734375 19.453125 -22.734375 C 20.441406 -22.734375 21.4375 -22.734375 22.4375 -22.734375 L 22.4375 0.03125 Z M 20.359375 0.03125 "/></g></g></g></svg>